<svg width="40" height="40" viewBox="0 0 40 40" fill="none" xmlns="http://www.w3.org/2000/svg">
<g id="SVG">
<path id="Vector" d="M31.4435 7.57191C33.4635 9.39576 34.9896 11.6581 36.0219 14.3588C36.315 15.1258 36.3342 15.8261 36.0796 16.46C35.9504 16.7823 35.5608 17.3111 34.9108 18.0465C33.4177 19.7358 31.7292 21.2461 29.8454 22.5777C29.7708 22.6308 29.7335 22.6111 29.7335 22.5188C29.7335 19.1227 29.7335 15.7515 29.7335 12.4054C29.7335 12.0015 29.6819 11.6981 29.5789 11.495C29.4219 11.1865 29.1819 10.9681 28.8589 10.8396C28.6673 10.7627 28.3612 10.7242 27.9404 10.7242C27.5566 10.7242 27.1731 10.7242 26.79 10.7242C26.1062 10.7242 25.7231 10.7308 25.6408 10.7438C25.1292 10.8269 24.7704 11.0973 24.5642 11.555C24.4527 11.8011 24.3969 12.1981 24.3969 12.7458C24.3969 16.6519 24.3969 20.5581 24.3969 24.4642C24.3969 24.4688 24.4004 24.5588 24.4073 24.7342C24.4204 25.0596 24.3396 25.3408 24.165 25.5777C24.0304 25.76 23.7754 25.9354 23.4 26.1038C23.1177 26.23 22.8273 26.35 22.5289 26.4638C22.5152 26.4691 22.5005 26.4709 22.486 26.4692C22.4714 26.4675 22.4576 26.4623 22.4455 26.454C22.4335 26.4457 22.4236 26.4346 22.4168 26.4216C22.41 26.4086 22.4065 26.3942 22.4066 26.3796C22.4066 22.9473 22.4066 19.5038 22.4066 16.0492C22.4066 15.7054 22.3585 15.4338 22.2623 15.2346C22.0469 14.7892 21.7023 14.5185 21.2285 14.4223C21.1131 14.3992 20.7246 14.3877 20.0631 14.3877C19.6746 14.3877 19.2862 14.3877 18.8977 14.3877C18.4277 14.3877 18.0839 14.4423 17.8662 14.5515C17.5846 14.6931 17.37 14.9069 17.2223 15.1931C17.1208 15.39 17.07 15.67 17.07 16.0331C17.07 19.6154 17.07 23.1973 17.07 26.7788C17.07 27.2911 17.0289 27.6404 16.9466 27.8265C16.7873 28.1865 16.485 28.4215 16.0396 28.5315C15.7389 28.6061 15.4454 28.6781 15.1592 28.7473C15.1463 28.7504 15.1329 28.7506 15.1199 28.7478C15.1069 28.745 15.0947 28.7392 15.0842 28.731C15.0738 28.7228 15.0653 28.7123 15.0595 28.7003C15.0538 28.6883 15.0508 28.6752 15.0508 28.6619C15.0508 25.9188 15.0508 23.1992 15.0508 20.5031C15.0508 19.7123 15.0335 19.2519 14.9989 19.1219C14.8935 18.7265 14.6485 18.4304 14.2639 18.2335C14.0739 18.1365 13.815 18.0865 13.4873 18.0835C12.9673 18.0788 12.4473 18.0723 11.9273 18.0638C11.2373 18.0523 10.7692 18.1035 10.5231 18.2173C10.1662 18.3827 9.92655 18.6638 9.80424 19.0608C9.74424 19.2554 9.71424 19.6042 9.71424 20.1073C9.71424 22.7335 9.71424 25.3596 9.71424 27.9858C9.71424 28.5111 9.70809 28.8108 9.69578 28.8846C9.63732 29.2346 9.46963 29.5008 9.19271 29.6831C8.99501 29.8138 8.61694 29.9104 8.05848 29.9727C7.79694 30.0011 7.5354 30.0296 7.27386 30.0581C6.92309 30.0965 6.66001 30.1065 6.48463 30.0881C6.03309 30.0404 5.63847 29.8777 5.30078 29.6C5.06924 29.4092 4.82578 29.0788 4.5704 28.6088C3.49347 26.625 2.8354 24.5746 2.59617 22.4577C2.13309 18.3461 2.99309 14.5619 5.17617 11.105C5.59078 10.4473 6.04386 9.82614 6.5354 9.24153C8.72694 6.63076 11.4692 4.8173 14.7623 3.80114C16.8362 3.16114 18.9892 2.93884 21.2216 3.13422C25.1369 3.47576 28.5442 4.95499 31.4435 7.57191Z" fill="white" stroke="white" stroke-width="0.115385"/>
<path id="Vector_2" d="M32.4522 32.1639C29.8752 34.9624 26.6856 36.7016 22.8833 37.3816C22.1226 37.5178 21.3587 37.6016 20.5918 37.6332C16.6241 37.7963 12.9902 36.7124 9.69024 34.3816C9.64332 34.3486 9.64794 34.3259 9.70409 34.3136C10.0149 34.2482 10.3256 34.1905 10.6364 34.1405C14.6249 33.5013 18.4779 32.3936 22.1956 30.8174C24.7949 29.7159 27.2483 28.3532 29.556 26.7293C32.5052 24.654 34.9733 22.1674 36.9602 19.2697C37.0564 19.1289 37.1076 19.1436 37.1137 19.3136C37.2945 24.3105 35.7406 28.594 32.4522 32.1639Z" fill="white" stroke="white" stroke-width="0.115385"/>
</g>
</svg>
