<svg width="49" height="49" viewBox="0 0 49 49" fill="none" xmlns="http://www.w3.org/2000/svg">
<g id="spider">
<g id="Subtract" opacity="0.4" filter="url(#filter0_f_11_3500)">
<path fill-rule="evenodd" clip-rule="evenodd" d="M24.613 45.5583C36.2134 45.5583 44.7346 37.3954 45.7093 26.732C46.3916 15.8439 38.4754 6.76657 24.8698 6.53799C11.2641 6.30942 3.30273 17.9224 3.30273 26.2588C3.30274 35.9037 13.0125 45.5583 24.613 45.5583ZM24.5702 43.7883C34.7562 43.7883 42.4572 35.7832 43.313 26.2494C43.9121 16.5146 38.6915 8.79104 24.5703 8.54961C12.1627 8.33748 6.42657 16.6518 6.42657 26.2494C6.42657 35.847 14.3843 43.7883 24.5702 43.7883Z" fill="#EE0000"/>
<path d="M46.0975 26.7675L46.0976 26.7675L46.0983 26.7564C46.446 21.2085 44.6021 16.1069 40.9256 12.3645C37.2493 8.62232 31.7661 6.26401 24.8763 6.14826C11.0252 5.91556 2.91294 17.7333 2.91295 26.2588C2.91295 31.2108 5.40247 36.1334 9.34172 39.8103C13.2838 43.4899 18.7041 45.9481 24.613 45.9481C36.4144 45.9481 45.1044 37.6321 46.0975 26.7675ZM39.1781 14.1068C42.0778 17.1832 43.2181 21.4279 42.9243 26.2199C42.0823 35.5699 34.5334 43.3985 24.5702 43.3985C14.5907 43.3985 6.81636 35.6229 6.81636 26.2494C6.81636 21.5248 8.22803 17.1488 11.1327 13.9844C14.0311 10.827 18.4536 8.83488 24.5636 8.93934C31.557 9.0589 36.2771 11.0291 39.1781 14.1068Z" stroke="#EE0000" stroke-width="0.779571"/>
</g>
<path id="Subtract_2" fill-rule="evenodd" clip-rule="evenodd" d="M24.613 45.9849C36.2134 45.9849 44.7346 37.6435 45.7093 26.747C46.3916 15.6207 38.4754 6.34489 24.8698 6.11131C11.2641 5.87773 3.30273 17.7446 3.30273 26.2634C3.30274 36.1192 13.0125 45.9849 24.613 45.9849ZM24.5702 44.1762C34.7562 44.1762 42.4572 35.996 43.313 26.2538C43.9121 16.3061 38.6915 8.41362 24.5703 8.16691C12.1627 7.95015 6.42657 16.4463 6.42657 26.2538C6.42657 36.0612 14.3843 44.1762 24.5702 44.1762Z" fill="#EE0000"/>
<path id="Vector 326" d="M14.559 8.17244C15.5712 5.92394 16.6391 4.74246 17.0466 4.43278C17.0466 4.63733 16.5871 6.07217 15.9633 8.17244C15.3394 10.2727 13.7558 17.0529 13.5879 17.9148C13.4199 18.7768 13.4439 19.2998 13.9478 19.6761C14.4502 20.0513 15.3584 20.5539 19.139 22.6465L19.1705 22.6639C17.387 20.8393 14.8774 19.1372 14.559 18.6887C14.2407 18.2402 14.3121 17.6946 14.559 17.0529C14.806 16.4111 19.1705 5.49659 20.0135 3.93992C20.6879 2.69458 21.7594 1.45099 22.2108 0.984865C21.2861 3.87098 19.261 10.1595 18.5578 12.2246C17.6789 14.8059 17.0466 16.8418 17.4552 17.2376C17.782 17.5542 20.7618 20.3707 22.2108 21.7394C22.1644 21.3452 22.0994 20.3806 22.2108 19.6761C22.3222 18.9716 23.4657 17.7569 24.0235 17.2376C23.8587 17.5718 23.493 18.4196 23.3484 19.1372C23.1677 20.0343 23.4742 20.5567 24.9299 21.8812C26.1951 20.657 25.7317 18.2753 25.3419 17.2376C25.6166 17.3343 26.2922 17.76 26.7976 18.6887C27.303 19.6174 27.4371 21.1095 27.441 21.7394C28.6196 20.5379 31.1013 18.0469 31.599 17.6947C32.2211 17.2543 32.2211 16.8769 32.0246 16.3737C31.8282 15.8705 31.599 14.9584 30.6823 11.9391C29.9489 9.52369 27.9976 3.74092 27.1136 1.15146C27.7138 1.8329 29.3268 4.08898 30.9769 7.66181C33.0396 12.1278 34.6111 17.5374 34.6111 17.9148C34.6111 18.2167 32.3193 20.2003 31.1734 21.1543L29.5691 24.1561C29.7546 23.8474 30.3352 23.1168 31.1734 22.6639C33.6289 21.4373 34.6111 20.3365 35.3314 19.6761C36.0517 19.0156 35.9535 18.7325 35.8225 17.9148C35.6817 17.1415 35.4509 16.0723 35.2313 15.1284C35.1968 14.98 34.775 15.5553 34.739 15.4043C34.6774 14.4092 34.8723 14.3698 34.9974 14.1595C34.1309 10.6392 32.9503 6.64238 32.2211 4.64252C32.6467 5.14573 33.8646 6.85038 35.3314 9.64322C37.1648 13.1343 38.8019 19.7704 38.8673 20.5567C38.9328 21.343 38.8673 21.4059 38.3108 21.7394C37.8655 22.0062 32.4939 25.0669 29.8637 26.5638C32.4502 26.8364 37.8262 27.4696 38.6382 27.8219C39.6531 28.2622 39.7513 28.5767 39.5876 29.4573C39.4239 30.3379 38.4745 34.7725 37.3613 38.8297C36.4707 42.0754 35.637 44.6901 35.3314 45.5917L33.9563 45.5917C35.3784 42.1909 36.7301 33.2183 36.968 31.2793C37.0158 30.8901 36.7883 30.6858 36.3875 30.5879C35.0693 30.2659 31.2783 29.3639 29.1762 28.8283C29.8856 29.2791 31.6972 30.4134 33.2687 31.3444C35.2332 32.5081 34.7748 32.8226 34.6111 33.829C34.4801 34.6342 32.5485 42.195 31.599 45.8747L30.1257 45.8747C30.6823 42.2788 31.8085 34.9549 31.8609 34.4266C31.9264 33.7661 30.8132 32.8855 27.7029 30.621C27.6374 32.4137 26.8189 33.483 26.6225 33.483C26.4653 33.483 26.3824 32.0573 26.3605 31.3444C26.0222 31.7323 25.2277 32.5081 24.7563 32.5081C24.2848 32.5081 23.6213 31.7323 23.3484 31.3444C23.2939 31.7428 22.8583 32.2575 22.8583 33.1895C22.8583 33.6613 22.7918 36.4709 22.5627 36.1564C22.4796 36.0424 22.3592 35.9671 22.2933 35.502C22.1775 34.6837 22.2108 33.1069 22.0715 32.3508C21.8703 31.2581 21.6677 30.5476 21.515 30.3379C20.7335 30.946 18.8274 32.4263 17.4552 33.483C17.4552 33.7095 18.9612 41.6498 19.7142 45.5917L18.0772 45.5917C16.9859 41.4926 14.7544 33.1056 14.559 32.3508C14.3149 31.4073 15.2288 31.1242 17.0466 30.1807C18.5008 29.4259 20.1512 28.6501 20.7947 28.3565C20.2533 28.4299 18.8274 28.627 17.4552 28.8283C15.7398 29.0799 12.4131 30.1178 12.4131 30.3379C12.4131 30.5581 12.4786 31.4702 13.1662 35.087C13.7162 37.9805 14.9232 43.128 15.458 45.3401L14.3121 45.3401C13.661 43.4998 12.2829 39.5686 11.9791 38.5654C11.5993 37.3115 9.46321 29.0124 10.0566 28.0093C11.4569 28.0093 16.6072 26.5501 19.1705 26.3449C18.5772 25.7293 17.0466 24.7717 16.0851 24.1561C15.1235 23.5405 12.2402 22.3094 11.4095 21.7394C10.5788 21.1694 10.2227 20.5082 10.6737 19.2998C11.1246 18.0915 13.2938 10.983 14.559 8.17244Z" fill="#EE0000"/>
<g id="Group 641">
<path id="Vector 1911" d="M11.6775 22.1074C11.3692 21.7266 11.0608 21.1236 11.0498 20.9755C11.1599 20.4361 12.5363 21.8006 12.5583 22.2025C12.5804 22.6045 12.4923 22.8161 12.4042 23.0382C12.3161 23.2603 12.4702 23.4296 12.4042 23.6411C12.3381 23.8527 12.4482 24.0748 12.4042 24.1912C12.3601 24.3075 12.1839 24.2864 12.0738 24.1912C11.9637 24.096 12.0298 23.0699 12.0738 22.8161C12.1179 22.5622 11.9857 22.4881 11.6775 22.1074Z" fill="#EE0000"/>
<path id="Vector 1912" d="M45.5681 34.837L45.2148 34.123C45.4076 34.3816 45.82 34.9665 45.9279 35.238C46.0628 35.5773 45.9086 35.3984 45.8573 35.386C45.8162 35.3762 45.6474 35.0159 45.5681 34.837Z" fill="#EE0000"/>
<path id="Vector 1913" d="M42.8462 38.0078C42.7599 37.9174 42.7253 37.7377 42.7187 37.6592C42.8071 37.5179 43.1012 37.6592 43.1502 38.0078C43.1992 38.3564 42.9541 38.1208 42.8462 38.0078Z" fill="#EE0000"/>
<path id="Vector 1914" d="M42.5814 38.3278C42.4441 38.1488 42.101 37.9227 42.0225 37.8662C42.1042 37.9636 42.2892 38.211 42.3755 38.422C42.4834 38.6858 42.6796 38.7423 42.807 38.667C42.9345 38.5916 42.7188 38.5068 42.5814 38.3278Z" fill="#EE0000"/>
<path id="Vector 1915" d="M15.9482 20.5446L15.9482 19.3228L16.3836 19.3228C16.3836 19.5497 16.3487 20.1117 16.209 20.5446C16.1109 20.8484 16.4087 21.3808 16.7157 21.8074C16.8649 21.9713 17.0049 22.1568 17.0821 22.2681C16.978 22.1506 16.846 21.9885 16.7157 21.8074C16.6025 21.6831 16.484 21.5711 16.3836 21.5132C16.0926 21.3454 15.9482 20.8748 15.9482 20.5446Z" fill="#EE0000"/>
</g>
<g id="Group 676" filter="url(#filter1_f_11_3500)">
<g id="Group 669">
<ellipse id="Ellipse 1315" cx="10.6289" cy="18.6376" rx="0.150403" ry="0.144479" fill="#EE0000"/>
<ellipse id="Ellipse 1316" cx="11.3811" cy="17.3949" rx="0.120322" ry="0.115584" fill="#EE0000"/>
<ellipse id="Ellipse 1317" cx="11.1703" cy="17.886" rx="0.0902416" ry="0.0866877" fill="#EE0000"/>
<ellipse id="Ellipse 1318" cx="10.1488" cy="20.4871" rx="0.0902416" ry="0.0866877" fill="#EE0000"/>
<ellipse id="Ellipse 1319" cx="9.51622" cy="20.5734" rx="0.060161" ry="0.0577918" fill="#EE0000"/>
<ellipse id="Ellipse 1337" cx="8.81955" cy="20.0985" rx="0.0588061" ry="0.0564902" fill="#EE0000"/>
<ellipse id="Ellipse 1338" cx="9.99924" cy="19.1913" rx="0.0588061" ry="0.0564902" fill="#EE0000"/>
<ellipse id="Ellipse 1339" cx="10.1327" cy="19.8702" rx="0.0320846" ry="0.0308211" fill="#EE0000"/>
<ellipse id="Ellipse 1340" cx="10.4471" cy="19.7613" rx="0.0320846" ry="0.0308211" fill="#EE0000"/>
<ellipse id="Ellipse 1341" cx="10.5106" cy="19.4131" rx="0.0320846" ry="0.0308211" fill="#EE0000"/>
<ellipse id="Ellipse 1342" cx="10.7064" cy="19.5508" rx="0.0442781" ry="0.0425343" fill="#EE0000"/>
<ellipse id="Ellipse 1343" cx="10.602" cy="19.6915" rx="0.0600362" ry="0.0576718" fill="#EE0000"/>
<ellipse id="Ellipse 1344" cx="10.6938" cy="18.9496" rx="0.0863475" ry="0.0829469" fill="#EE0000"/>
<ellipse id="Ellipse 1345" cx="10.4792" cy="18.2589" rx="0.0631922" ry="0.0607036" fill="#EE0000"/>
<ellipse id="Ellipse 1346" cx="10.1649" cy="18.4928" rx="0.0418096" ry="0.0401631" fill="#EE0000"/>
<ellipse id="Ellipse 1347" cx="10.7527" cy="17.6774" rx="0.0418096" ry="0.0401631" fill="#EE0000"/>
<ellipse id="Ellipse 1348" cx="10.9376" cy="17.1966" rx="0.0303436" ry="0.0291486" fill="#EE0000"/>
<ellipse id="Ellipse 1349" cx="10.9837" cy="17.4729" rx="0.0393522" ry="0.0378024" fill="#EE0000"/>
<ellipse id="Ellipse 1350" cx="11.1809" cy="17.7469" rx="0.0480767" ry="0.0461833" fill="#EE0000"/>
<ellipse id="Ellipse 1320" cx="10.359" cy="20.6891" rx="0.060161" ry="0.0577918" fill="#EE0000"/>
<ellipse id="Ellipse 1321" cx="10.359" cy="20.5158" rx="0.060161" ry="0.0577918" fill="#EE0000"/>
<ellipse id="Ellipse 1322" cx="10.1783" cy="20.9782" rx="0.060161" ry="0.0577918" fill="#EE0000"/>
<ellipse id="Ellipse 1323" cx="10.3891" cy="21.0071" rx="0.0902416" ry="0.0866877" fill="#EE0000"/>
<ellipse id="Ellipse 1326" cx="9.99766" cy="21.8449" rx="0.060161" ry="0.0577918" fill="#EE0000"/>
<ellipse id="Ellipse 1331" cx="9.63644" cy="21.9174" rx="0.0446434" ry="0.0428853" fill="#EE0000"/>
<ellipse id="Ellipse 1332" cx="9.29074" cy="21.7445" rx="0.0446434" ry="0.0428853" fill="#EE0000"/>
<ellipse id="Ellipse 1333" cx="10.1032" cy="22.3178" rx="0.0446434" ry="0.0428853" fill="#EE0000"/>
<ellipse id="Ellipse 1334" cx="11.3366" cy="22.6527" rx="0.0446434" ry="0.0428853" fill="#EE0000"/>
<ellipse id="Ellipse 1335" cx="10.7497" cy="22.3178" rx="0.0446434" ry="0.0428853" fill="#EE0000"/>
<ellipse id="Ellipse 1327" cx="10.2389" cy="22.0182" rx="0.060161" ry="0.0577918" fill="#EE0000"/>
<ellipse id="Ellipse 1328" cx="10.5688" cy="21.8162" rx="0.0902416" ry="0.0866877" fill="#EE0000"/>
<ellipse id="Ellipse 1329" cx="10.81" cy="21.8162" rx="0.0902416" ry="0.0866877" fill="#EE0000"/>
<ellipse id="Ellipse 1336" cx="10.9906" cy="22.0042" rx="0.0902416" ry="0.0866877" fill="#EE0000"/>
<ellipse id="Ellipse 1330" cx="10.7494" cy="21.4695" rx="0.0902416" ry="0.0866877" fill="#EE0000"/>
<ellipse id="Ellipse 1324" cx="10.359" cy="21.5558" rx="0.060161" ry="0.0577918" fill="#EE0000"/>
<ellipse id="Ellipse 1325" cx="10.5092" cy="21.3538" rx="0.0902416" ry="0.0866877" fill="#EE0000"/>
</g>
<g id="Group 671">
<ellipse id="Ellipse 1315_2" cx="9.60424" cy="28.5573" rx="0.124748" ry="0.119835" fill="#EE0000"/>
<ellipse id="Ellipse 1316_2" cx="9.88706" cy="28.154" rx="0.116549" ry="0.111959" fill="#EE0000"/>
<ellipse id="Ellipse 1356" cx="10.6234" cy="27.7239" rx="0.0902419" ry="0.086688" fill="#EE0000"/>
<ellipse id="Ellipse 1355" cx="10.2387" cy="28.0529" rx="0.118616" ry="0.113945" fill="#EE0000"/>
<ellipse id="Ellipse 1317_2" cx="9.43897" cy="28.2143" rx="0.0874114" ry="0.083969" fill="#EE0000"/>
<ellipse id="Ellipse 1318_2" cx="9.42335" cy="29.8125" rx="0.0874114" ry="0.083969" fill="#EE0000"/>
<ellipse id="Ellipse 1319_2" cx="8.8112" cy="29.8963" rx="0.0582743" ry="0.0559793" fill="#EE0000"/>
<ellipse id="Ellipse 1337_2" cx="8.6927" cy="29.3326" rx="0.0569618" ry="0.0547186" fill="#EE0000"/>
<ellipse id="Ellipse 1338_2" cx="9.27864" cy="28.5576" rx="0.0569618" ry="0.0547186" fill="#EE0000"/>
<ellipse id="Ellipse 1339_2" cx="9.40803" cy="29.2149" rx="0.0310784" ry="0.0298545" fill="#EE0000"/>
<ellipse id="Ellipse 1340_2" cx="9.71272" cy="29.1094" rx="0.0310784" ry="0.0298545" fill="#EE0000"/>
<ellipse id="Ellipse 1341_2" cx="9.77424" cy="28.7725" rx="0.0310784" ry="0.0298545" fill="#EE0000"/>
<ellipse id="Ellipse 1342_2" cx="9.06828" cy="30.2077" rx="0.0428894" ry="0.0412004" fill="#EE0000"/>
<ellipse id="Ellipse 1343_2" cx="9.21929" cy="29.4558" rx="0.0581534" ry="0.0558632" fill="#EE0000"/>
<ellipse id="Ellipse 1344_2" cx="9.35512" cy="28.8494" rx="0.0836395" ry="0.0803456" fill="#EE0000"/>
<ellipse id="Ellipse 1345_2" cx="9.74383" cy="27.6545" rx="0.0612104" ry="0.0587998" fill="#EE0000"/>
<ellipse id="Ellipse 1346_2" cx="9.43894" cy="27.8812" rx="0.0404984" ry="0.0389035" fill="#EE0000"/>
<ellipse id="Ellipse 1347_2" cx="10.0083" cy="27.0907" rx="0.0404984" ry="0.0389035" fill="#EE0000"/>
<ellipse id="Ellipse 1348_2" cx="9.56845" cy="26.9145" rx="0.0293919" ry="0.0282344" fill="#EE0000"/>
<ellipse id="Ellipse 1351" cx="9.10263" cy="27.8139" rx="0.0293919" ry="0.0282344" fill="#EE0000"/>
<ellipse id="Ellipse 1349_2" cx="10.4307" cy="27.4116" rx="0.038118" ry="0.0366169" fill="#EE0000"/>
<ellipse id="Ellipse 1350_2" cx="10.2048" cy="27.6683" rx="0.0465689" ry="0.0447349" fill="#EE0000"/>
<ellipse id="Ellipse 1320_2" cx="9.62761" cy="30.0081" rx="0.0582743" ry="0.0559793" fill="#EE0000"/>
<ellipse id="Ellipse 1321_2" cx="9.67058" cy="29.6229" rx="0.0582743" ry="0.0559793" fill="#EE0000"/>
<ellipse id="Ellipse 1359" cx="11.0524" cy="27.7298" rx="0.0582743" ry="0.0559793" fill="#EE0000"/>
<ellipse id="Ellipse 1322_2" cx="9.45183" cy="30.2884" rx="0.0582743" ry="0.0559793" fill="#EE0000"/>
<ellipse id="Ellipse 1323_2" cx="9.7671" cy="30.3721" rx="0.0874114" ry="0.083969" fill="#EE0000"/>
<path id="Vector 1996" d="M9.73575 28.1247C9.77374 27.8783 10.4323 27.8852 10.7568 27.9194L10.9943 27.9992C11.0141 27.9726 11.0306 27.6899 11.398 27.6115C11.8254 27.5202 12.0985 27.6115 12.1934 27.6685C12.2884 27.7255 11.0774 28.2616 10.65 28.4669C10.2225 28.6722 10.4956 28.7406 10.46 29.3565C10.4244 29.9724 10.3531 30.1663 10.3888 30.7365C10.4244 31.3068 10.4125 32.1622 10.3888 32.0025C10.365 31.8429 10.2344 31.8429 10.0444 30.9532C10.0444 30.7137 9.96133 30.6909 9.96133 30.1663C9.96133 30.0066 9.81886 29.9496 9.60514 29.8355C9.43417 29.7443 9.53391 29.6074 9.60514 29.5504C9.64868 29.5238 9.75237 29.4477 9.81886 29.3565C9.90197 29.2424 9.73575 29.1968 9.73575 28.6608C9.86635 28.3414 9.68825 28.4327 9.73575 28.1247Z" fill="#EE0000"/>
<ellipse id="Ellipse 1326_2" cx="9.27702" cy="31.1278" rx="0.0582743" ry="0.0559793" fill="#EE0000"/>
<ellipse id="Ellipse 1331_2" cx="8.93387" cy="30.8433" rx="0.0432433" ry="0.0415403" fill="#EE0000"/>
<ellipse id="Ellipse 1332_2" cx="9.8284" cy="29.9854" rx="0.0432433" ry="0.0415403" fill="#EE0000"/>
<ellipse id="Ellipse 1362" cx="10.401" cy="32.0218" rx="0.0328563" ry="0.0315623" fill="#EE0000"/>
<ellipse id="Ellipse 1352" cx="9.13113" cy="30.5337" rx="0.0432433" ry="0.0415403" fill="#EE0000"/>
<ellipse id="Ellipse 1353" cx="9.01492" cy="28.9449" rx="0.0432433" ry="0.0415403" fill="#EE0000"/>
<ellipse id="Ellipse 1354" cx="10.8733" cy="27.48" rx="0.0432433" ry="0.0415403" fill="#EE0000"/>
<ellipse id="Ellipse 1357" cx="10.6661" cy="27.0265" rx="0.0342179" ry="0.0328703" fill="#EE0000"/>
<ellipse id="Ellipse 1358" cx="11.3838" cy="27.3234" rx="0.0342179" ry="0.0328703" fill="#EE0000"/>
<ellipse id="Ellipse 1333_2" cx="9.38016" cy="31.5855" rx="0.0432433" ry="0.0415403" fill="#EE0000"/>
<ellipse id="Ellipse 1334_2" cx="9.40262" cy="30.8692" rx="0.0432433" ry="0.0415403" fill="#EE0000"/>
<ellipse id="Ellipse 1335_2" cx="10.0061" cy="31.5855" rx="0.0432433" ry="0.0415403" fill="#EE0000"/>
<ellipse id="Ellipse 1360" cx="10.6663" cy="32.2964" rx="0.0432433" ry="0.0415403" fill="#EE0000"/>
<ellipse id="Ellipse 1361" cx="10.7874" cy="32.6763" rx="0.0432433" ry="0.0415403" fill="#EE0000"/>
<ellipse id="Ellipse 1327_2" cx="9.51042" cy="31.2957" rx="0.0582743" ry="0.0559793" fill="#EE0000"/>
<ellipse id="Ellipse 1328_2" cx="9.83058" cy="31.1001" rx="0.0874114" ry="0.083969" fill="#EE0000"/>
<ellipse id="Ellipse 1329_2" cx="10.064" cy="31.1001" rx="0.0874114" ry="0.083969" fill="#EE0000"/>
<ellipse id="Ellipse 1336_2" cx="10.5465" cy="31.228" rx="0.162677" ry="0.15627" fill="#EE0000"/>
<ellipse id="Ellipse 1363" cx="10.7444" cy="31.8653" rx="0.115456" ry="0.110909" fill="#EE0000"/>
<ellipse id="Ellipse 1330_2" cx="9.97511" cy="30.8481" rx="0.0874114" ry="0.083969" fill="#EE0000"/>
<ellipse id="Ellipse 1324_2" cx="9.62761" cy="30.848" rx="0.0582743" ry="0.0559793" fill="#EE0000"/>
<ellipse id="Ellipse 1325_2" cx="9.77296" cy="30.6518" rx="0.0874114" ry="0.083969" fill="#EE0000"/>
</g>
<g id="Group 672">
<ellipse id="Ellipse 1315_3" cx="14.714" cy="31.7648" rx="0.0743998" ry="0.0714697" fill="#EE0000"/>
<ellipse id="Ellipse 1316_3" cx="14.9576" cy="31.3863" rx="0.100217" ry="0.0962698" fill="#EE0000"/>
<ellipse id="Ellipse 1356_2" cx="15.5014" cy="31.077" rx="0.0775962" ry="0.0745404" fill="#EE0000"/>
<ellipse id="Ellipse 1355_2" cx="15.2592" cy="31.2996" rx="0.101995" ry="0.0979779" fill="#EE0000"/>
<ellipse id="Ellipse 1317_3" cx="14.5715" cy="31.4539" rx="0.0587856" ry="0.0564705" fill="#EE0000"/>
<ellipse id="Ellipse 1318_3" cx="14.5576" cy="32.8124" rx="0.0751624" ry="0.0722024" fill="#EE0000"/>
<ellipse id="Ellipse 1319_3" cx="14.0316" cy="32.8846" rx="0.0501083" ry="0.0481349" fill="#EE0000"/>
<ellipse id="Ellipse 1337_3" cx="13.9298" cy="32.3996" rx="0.0489797" ry="0.0470508" fill="#EE0000"/>
<ellipse id="Ellipse 1338_3" cx="14.4337" cy="31.7331" rx="0.0489797" ry="0.0470508" fill="#EE0000"/>
<ellipse id="Ellipse 1339_3" cx="14.5453" cy="32.2986" rx="0.0267234" ry="0.025671" fill="#EE0000"/>
<ellipse id="Ellipse 1340_3" cx="14.807" cy="32.2078" rx="0.0267234" ry="0.025671" fill="#EE0000"/>
<ellipse id="Ellipse 1341_3" cx="14.8597" cy="31.9182" rx="0.0267234" ry="0.025671" fill="#EE0000"/>
<ellipse id="Ellipse 1342_3" cx="14.2527" cy="33.1521" rx="0.0368793" ry="0.0354269" fill="#EE0000"/>
<ellipse id="Ellipse 1343_3" cx="14.382" cy="32.5056" rx="0.0500043" ry="0.048035" fill="#EE0000"/>
<ellipse id="Ellipse 1344_3" cx="14.4997" cy="31.9841" rx="0.071919" ry="0.0690867" fill="#EE0000"/>
<ellipse id="Ellipse 1345_3" cx="14.8339" cy="30.9568" rx="0.052633" ry="0.0505602" fill="#EE0000"/>
<ellipse id="Ellipse 1346_3" cx="14.572" cy="31.1516" rx="0.0348534" ry="0.0334808" fill="#EE0000"/>
<ellipse id="Ellipse 1347_3" cx="15.0612" cy="30.4724" rx="0.0348534" ry="0.0334808" fill="#EE0000"/>
<ellipse id="Ellipse 1348_3" cx="14.6835" cy="30.3207" rx="0.0252732" ry="0.0242779" fill="#EE0000"/>
<ellipse id="Ellipse 1351_2" cx="14.2821" cy="31.0941" rx="0.0252732" ry="0.0242779" fill="#EE0000"/>
<ellipse id="Ellipse 1349_3" cx="15.4244" cy="30.7483" rx="0.0328049" ry="0.0315129" fill="#EE0000"/>
<ellipse id="Ellipse 1350_3" cx="15.2305" cy="30.9686" rx="0.0400432" ry="0.0384662" fill="#EE0000"/>
<ellipse id="Ellipse 1320_3" cx="14.7337" cy="32.9808" rx="0.0501083" ry="0.0481349" fill="#EE0000"/>
<ellipse id="Ellipse 1321_3" cx="14.7708" cy="32.6492" rx="0.0501083" ry="0.0481349" fill="#EE0000"/>
<ellipse id="Ellipse 1359_2" cx="15.9583" cy="31.0218" rx="0.0501083" ry="0.0481349" fill="#EE0000"/>
<ellipse id="Ellipse 1322_3" cx="14.5823" cy="33.2215" rx="0.0501083" ry="0.0481349" fill="#EE0000"/>
<ellipse id="Ellipse 1323_3" cx="14.7588" cy="33.2455" rx="0.0751624" ry="0.0722024" fill="#EE0000"/>
<ellipse id="Ellipse 1326_3" cx="14.4329" cy="33.9436" rx="0.0501083" ry="0.0481349" fill="#EE0000"/>
<ellipse id="Ellipse 1331_3" cx="14.1319" cy="34.004" rx="0.0371836" ry="0.0357193" fill="#EE0000"/>
<ellipse id="Ellipse 1332_3" cx="13.8927" cy="34.1002" rx="0.0371836" ry="0.0357193" fill="#EE0000"/>
<ellipse id="Ellipse 1362_2" cx="15.3993" cy="34.7122" rx="0.0282521" ry="0.0271395" fill="#EE0000"/>
<ellipse id="Ellipse 1352_2" cx="14.3077" cy="33.4327" rx="0.0371836" ry="0.0357193" fill="#EE0000"/>
<ellipse id="Ellipse 1353_2" cx="14.2061" cy="32.0665" rx="0.0371836" ry="0.0357193" fill="#EE0000"/>
<ellipse id="Ellipse 1354_2" cx="15.8048" cy="30.8072" rx="0.0371836" ry="0.0357193" fill="#EE0000"/>
<ellipse id="Ellipse 1357_2" cx="15.6261" cy="30.4169" rx="0.0294229" ry="0.0282642" fill="#EE0000"/>
<ellipse id="Ellipse 1358_2" cx="16.2443" cy="30.6723" rx="0.0294229" ry="0.0282642" fill="#EE0000"/>
<ellipse id="Ellipse 1333_3" cx="14.5206" cy="34.3375" rx="0.0371836" ry="0.0357193" fill="#EE0000"/>
<ellipse id="Ellipse 1334_3" cx="14.5401" cy="33.7213" rx="0.0371836" ry="0.0357193" fill="#EE0000"/>
<ellipse id="Ellipse 1335_3" cx="15.0587" cy="34.3375" rx="0.0371836" ry="0.0357193" fill="#EE0000"/>
<ellipse id="Ellipse 1360_2" cx="15.2598" cy="34.9776" rx="0.0371836" ry="0.0357193" fill="#EE0000"/>
<ellipse id="Ellipse 1361_2" cx="15.0577" cy="35.3419" rx="0.0371836" ry="0.0357193" fill="#EE0000"/>
<ellipse id="Ellipse 1327_3" cx="14.6331" cy="34.0877" rx="0.0501083" ry="0.0481349" fill="#EE0000"/>
<ellipse id="Ellipse 1328_3" cx="14.9082" cy="33.9194" rx="0.0751624" ry="0.0722024" fill="#EE0000"/>
<ellipse id="Ellipse 1329_3" cx="15.1093" cy="33.9194" rx="0.0751624" ry="0.0722024" fill="#EE0000"/>
<ellipse id="Ellipse 1363_2" cx="15.109" cy="34.5407" rx="0.099277" ry="0.0953673" fill="#EE0000"/>
<ellipse id="Ellipse 1330_3" cx="15.0322" cy="33.7031" rx="0.0751624" ry="0.0722024" fill="#EE0000"/>
<ellipse id="Ellipse 1324_3" cx="14.7337" cy="33.7029" rx="0.0501083" ry="0.0481349" fill="#EE0000"/>
<ellipse id="Ellipse 1325_3" cx="14.8584" cy="33.5346" rx="0.0751624" ry="0.0722024" fill="#EE0000"/>
</g>
<g id="Group 673">
<ellipse id="Ellipse 1315_4" cx="0.0665379" cy="0.0688936" rx="0.0665379" ry="0.0688936" transform="matrix(-0.268678 0.96323 -0.968434 -0.249272 39.3428 28.0039)" fill="#EE0000"/>
<ellipse id="Ellipse 1316_4" cx="0.0896267" cy="0.0927997" rx="0.0896267" ry="0.0927997" transform="matrix(-0.268678 0.96323 -0.968434 -0.249272 39.668 28.2886)" fill="#EE0000"/>
<ellipse id="Ellipse 1356_3" cx="0.0693966" cy="0.0718535" rx="0.0693966" ry="0.0718535" transform="matrix(-0.268678 0.96323 -0.968434 -0.249272 39.7998 28.8457)" fill="#EE0000"/>
<ellipse id="Ellipse 1355_3" cx="0.0912169" cy="0.0944462" rx="0.0912169" ry="0.0944462" transform="matrix(-0.268678 0.96323 -0.968434 -0.249272 39.6777 28.5684)" fill="#EE0000"/>
<ellipse id="Ellipse 1317_4" cx="0.0525737" cy="0.054435" rx="0.0525737" ry="0.054435" transform="matrix(-0.268678 0.96323 -0.968434 -0.249272 39.6504 27.9663)" fill="#EE0000"/>
<ellipse id="Ellipse 1318_4" cx="0.06722" cy="0.0695998" rx="0.06722" ry="0.0695998" transform="matrix(-0.268678 0.96323 -0.968434 -0.249272 38.4043 27.6177)" fill="#EE0000"/>
<ellipse id="Ellipse 1319_4" cx="0.0448133" cy="0.0463999" rx="0.0448133" ry="0.0463999" transform="matrix(-0.268678 0.96323 -0.968434 -0.249272 38.4346 27.1631)" fill="#EE0000"/>
<ellipse id="Ellipse 1337_4" cx="0.043804" cy="0.0453548" rx="0.043804" ry="0.0453548" transform="matrix(-0.268678 0.96323 -0.968434 -0.249272 38.9102 27.1924)" fill="#EE0000"/>
<ellipse id="Ellipse 1338_4" cx="0.043804" cy="0.0453548" rx="0.043804" ry="0.0453548" transform="matrix(-0.268678 0.96323 -0.968434 -0.249272 39.4111 27.7866)" fill="#EE0000"/>
<ellipse id="Ellipse 1339_4" cx="0.0238995" cy="0.0247456" rx="0.0238995" ry="0.0247456" transform="matrix(-0.268678 0.96323 -0.968434 -0.249272 38.8311 27.7603)" fill="#EE0000"/>
<ellipse id="Ellipse 1340_4" cx="0.0238995" cy="0.0247456" rx="0.0238995" ry="0.0247456" transform="matrix(-0.268678 0.96323 -0.968434 -0.249272 38.8525 28.0078)" fill="#EE0000"/>
<ellipse id="Ellipse 1341_4" cx="0.0238995" cy="0.0247456" rx="0.0238995" ry="0.0247456" transform="matrix(-0.268678 0.96323 -0.968434 -0.249272 39.1104 28.1235)" fill="#EE0000"/>
<ellipse id="Ellipse 1342_4" cx="0.0330108" cy="0.0341795" rx="0.0330108" ry="0.0341795" transform="matrix(-0.268678 0.96323 -0.968434 -0.249272 38.1162 27.2974)" fill="#EE0000"/>
<ellipse id="Ellipse 1343_4" cx="0.0447203" cy="0.0463036" rx="0.0447203" ry="0.0463036" transform="matrix(-0.268678 0.96323 -0.968434 -0.249272 38.7031 27.5562)" fill="#EE0000"/>
<ellipse id="Ellipse 1344_4" cx="0.0643193" cy="0.0665964" rx="0.0643193" ry="0.0665964" transform="matrix(-0.268678 0.96323 -0.968434 -0.249272 39.1875 27.7686)" fill="#EE0000"/>
<ellipse id="Ellipse 1345_4" cx="0.0470712" cy="0.0487377" rx="0.0470712" ry="0.0487377" transform="matrix(-0.268678 0.96323 -0.968434 -0.249272 40.0439 28.3149)" fill="#EE0000"/>
<ellipse id="Ellipse 1346_4" cx="0.0311705" cy="0.032274" rx="0.0311705" ry="0.032274" transform="matrix(-0.268678 0.96323 -0.968434 -0.249272 39.9053 28.0542)" fill="#EE0000"/>
<ellipse id="Ellipse 1347_4" cx="0.0311705" cy="0.032274" rx="0.0311705" ry="0.032274" transform="matrix(-0.268678 0.96323 -0.968434 -0.249272 40.4219 28.6392)" fill="#EE0000"/>
<ellipse id="Ellipse 1348_4" cx="0.0226026" cy="0.0234028" rx="0.0226026" ry="0.0234028" transform="matrix(-0.268678 0.96323 -0.968434 -0.249272 39.6777 27.4688)" fill="#EE0000"/>
<ellipse id="Ellipse 1351_3" cx="0.0226026" cy="0.0234028" rx="0.0226026" ry="0.0234028" transform="matrix(-0.268678 0.96323 -0.968434 -0.249272 40.0176 27.8242)" fill="#EE0000"/>
<ellipse id="Ellipse 1349_4" cx="0.0293384" cy="0.030377" rx="0.0293384" ry="0.030377" transform="matrix(-0.268678 0.96323 -0.968434 -0.249272 40.0742 28.8862)" fill="#EE0000"/>
<ellipse id="Ellipse 1350_4" cx="0.0358118" cy="0.0370797" rx="0.0358118" ry="0.0370797" transform="matrix(-0.268678 0.96323 -0.968434 -0.249272 39.9229 28.6621)" fill="#EE0000"/>
<ellipse id="Ellipse 1320_4" cx="0.0448133" cy="0.0463999" rx="0.0448133" ry="0.0463999" transform="matrix(-0.268678 0.96323 -0.968434 -0.249272 38.1758 27.7441)" fill="#EE0000"/>
<ellipse id="Ellipse 1321_4" cx="0.0448133" cy="0.0463999" rx="0.0448133" ry="0.0463999" transform="matrix(-0.268678 0.96323 -0.968434 -0.249272 38.4766 27.856)" fill="#EE0000"/>
<ellipse id="Ellipse 1359_3" cx="0.0448133" cy="0.0463999" rx="0.0448133" ry="0.0463999" transform="matrix(-0.268678 0.96323 -0.968434 -0.249272 39.71 29.2705)" fill="#EE0000"/>
<ellipse id="Ellipse 1322_4" cx="0.0448133" cy="0.0463999" rx="0.0448133" ry="0.0463999" transform="matrix(-0.268678 0.96323 -0.968434 -0.249272 37.9873 27.5566)" fill="#EE0000"/>
<ellipse id="Ellipse 1323_4" cx="0.06722" cy="0.0695998" rx="0.06722" ry="0.0695998" transform="matrix(-0.268678 0.96323 -0.968434 -0.249272 37.9512 27.686)" fill="#EE0000"/>
<ellipse id="Ellipse 1326_4" cx="0.0448133" cy="0.0463999" rx="0.0448133" ry="0.0463999" transform="matrix(-0.268678 0.96323 -0.968434 -0.249272 37.3496 27.2539)" fill="#EE0000"/>
<ellipse id="Ellipse 1331_4" cx="0.0332832" cy="0.0344615" rx="0.0332832" ry="0.0344615" transform="matrix(-0.268678 0.96323 -0.968434 -0.249272 37.3506 26.9883)" fill="#EE0000"/>
<ellipse id="Ellipse 1332_4" cx="0.0332832" cy="0.0344615" rx="0.0332832" ry="0.0344615" transform="matrix(-0.268678 0.96323 -0.968434 -0.249272 37.3184 26.7593)" fill="#EE0000"/>
<ellipse id="Ellipse 1362_3" cx="0.0252667" cy="0.0261612" rx="0.0252667" ry="0.0261612" transform="matrix(-0.268678 0.96323 -0.968434 -0.249272 36.6162 27.2412)" fill="#EE0000"/>
<ellipse id="Ellipse 1352_3" cx="0.0332832" cy="0.0344615" rx="0.0332832" ry="0.0344615" transform="matrix(-0.268678 0.96323 -0.968434 -0.249272 37.8418 27.2769)" fill="#EE0000"/>
<ellipse id="Ellipse 1353_3" cx="0.0332832" cy="0.0344615" rx="0.0332832" ry="0.0344615" transform="matrix(-0.268678 0.96323 -0.968434 -0.249272 39.1416 27.5181)" fill="#EE0000"/>
<ellipse id="Ellipse 1354_3" cx="0.0332832" cy="0.0344615" rx="0.0332832" ry="0.0344615" transform="matrix(-0.268678 0.96323 -0.968434 -0.249272 39.9326 29.1978)" fill="#EE0000"/>
<ellipse id="Ellipse 1357_3" cx="0.0263138" cy="0.0272454" rx="0.0263138" ry="0.0272454" transform="matrix(-0.268678 0.96323 -0.968434 -0.249272 39.8525 27.7207)" fill="#EE0000"/>
<ellipse id="Ellipse 1358_3" cx="0.0263138" cy="0.0272454" rx="0.0263138" ry="0.0272454" transform="matrix(-0.268678 0.96323 -0.968434 -0.249272 39.9443 29.6133)" fill="#EE0000"/>
<ellipse id="Ellipse 1333_4" cx="0.0332832" cy="0.0344615" rx="0.0332832" ry="0.0344615" transform="matrix(-0.268678 0.96323 -0.968434 -0.249272 36.9463 27.2432)" fill="#EE0000"/>
<ellipse id="Ellipse 1334_4" cx="0.0332832" cy="0.0344615" rx="0.0332832" ry="0.0344615" transform="matrix(-0.268678 0.96323 -0.968434 -0.249272 37.5166 27.4082)" fill="#EE0000"/>
<ellipse id="Ellipse 1335_4" cx="0.0332832" cy="0.0344615" rx="0.0332832" ry="0.0344615" transform="matrix(-0.268678 0.96323 -0.968434 -0.249272 36.8613 27.1396)" fill="#EE0000"/>
<ellipse id="Ellipse 1360_3" cx="0.0332832" cy="0.0344615" rx="0.0332832" ry="0.0344615" transform="matrix(-0.268678 0.96323 -0.968434 -0.249272 36.6514 27.5586)" fill="#EE0000"/>
<ellipse id="Ellipse 1361_3" cx="0.0332832" cy="0.0344615" rx="0.0332832" ry="0.0344615" transform="matrix(-0.268678 0.96323 -0.968434 -0.249272 36.2441 27.4209)" fill="#EE0000"/>
<ellipse id="Ellipse 1327_4" cx="0.0448133" cy="0.0463999" rx="0.0448133" ry="0.0463999" transform="matrix(-0.268678 0.96323 -0.968434 -0.249272 37.166 27.3916)" fill="#EE0000"/>
<ellipse id="Ellipse 1328_4" cx="0.06722" cy="0.0695998" rx="0.06722" ry="0.0695998" transform="matrix(-0.268678 0.96323 -0.968434 -0.249272 37.293 27.5703)" fill="#EE0000"/>
<ellipse id="Ellipse 1329_4" cx="0.06722" cy="0.0695998" rx="0.06722" ry="0.0695998" transform="matrix(-0.268678 0.96323 -0.968434 -0.249272 38.2324 27.541)" fill="#EE0000"/>
<ellipse id="Ellipse 1363_3" cx="0.045183" cy="0.0467826" rx="0.045183" ry="0.0467826" transform="matrix(-0.268678 0.96323 -0.968434 -0.249272 37.8633 27.0713)" fill="#EE0000"/>
<ellipse id="Ellipse 1330_4" cx="0.06722" cy="0.0695998" rx="0.06722" ry="0.0695998" transform="matrix(-0.268678 0.96323 -0.968434 -0.249272 39.5625 28.0728)" fill="#EE0000"/>
<ellipse id="Ellipse 1324_4" cx="0.0448133" cy="0.0463999" rx="0.0448133" ry="0.0463999" transform="matrix(-0.268678 0.96323 -0.968434 -0.249272 37.502 27.5708)" fill="#EE0000"/>
<ellipse id="Ellipse 1325_4" cx="0.06722" cy="0.0695998" rx="0.06722" ry="0.0695998" transform="matrix(-0.268678 0.96323 -0.968434 -0.249272 37.6572 27.7031)" fill="#EE0000"/>
</g>
<g id="Group 675">
<ellipse id="Ellipse 1315_5" cx="0.0665379" cy="0.0688936" rx="0.0665379" ry="0.0688936" transform="matrix(-0.268678 0.96323 -0.968434 -0.249272 36.3877 31.0493)" fill="#EE0000"/>
<ellipse id="Ellipse 1316_5" cx="0.0896267" cy="0.0927997" rx="0.0896267" ry="0.0927997" transform="matrix(-0.268678 0.96323 -0.968434 -0.249272 36.874 30.8066)" fill="#EE0000"/>
<ellipse id="Ellipse 1356_4" cx="0.0693966" cy="0.0718535" rx="0.0693966" ry="0.0718535" transform="matrix(-0.268678 0.96323 -0.968434 -0.249272 36.8438 31.8916)" fill="#EE0000"/>
<ellipse id="Ellipse 1355_4" cx="0.0912169" cy="0.0944462" rx="0.0912169" ry="0.0944462" transform="matrix(-0.268678 0.96323 -0.968434 -0.249272 36.7217 31.6143)" fill="#EE0000"/>
<ellipse id="Ellipse 1317_5" cx="0.0525737" cy="0.054435" rx="0.0525737" ry="0.054435" transform="matrix(-0.268678 0.96323 -0.968434 -0.249272 36.6943 31.0117)" fill="#EE0000"/>
<ellipse id="Ellipse 1318_5" cx="0.0560834" cy="0.058069" rx="0.0560834" ry="0.058069" transform="matrix(-0.268678 0.96323 -0.968434 -0.249272 35.4365 30.6602)" fill="#EE0000"/>
<ellipse id="Ellipse 1319_5" cx="0.0448133" cy="0.0463999" rx="0.0448133" ry="0.0463999" transform="matrix(-0.268678 0.96323 -0.968434 -0.249272 35.6826 30.5234)" fill="#EE0000"/>
<ellipse id="Ellipse 1337_5" cx="0.043804" cy="0.0453548" rx="0.043804" ry="0.0453548" transform="matrix(-0.268678 0.96323 -0.968434 -0.249272 35.7148 31.0811)" fill="#EE0000"/>
<ellipse id="Ellipse 1338_5" cx="0.043804" cy="0.0453548" rx="0.043804" ry="0.0453548" transform="matrix(-0.268678 0.96323 -0.968434 -0.249272 36.4551 30.832)" fill="#EE0000"/>
<ellipse id="Ellipse 1339_5" cx="0.0238995" cy="0.0247456" rx="0.0238995" ry="0.0247456" transform="matrix(-0.268678 0.96323 -0.968434 -0.249272 35.875 30.8062)" fill="#EE0000"/>
<ellipse id="Ellipse 1340_5" cx="0.0238995" cy="0.0247456" rx="0.0238995" ry="0.0247456" transform="matrix(-0.268678 0.96323 -0.968434 -0.249272 35.8975 31.0532)" fill="#EE0000"/>
<ellipse id="Ellipse 1341_5" cx="0.0238995" cy="0.0247456" rx="0.0238995" ry="0.0247456" transform="matrix(-0.268678 0.96323 -0.968434 -0.249272 36.1553 31.1689)" fill="#EE0000"/>
<ellipse id="Ellipse 1342_5" cx="0.0330108" cy="0.0341795" rx="0.0330108" ry="0.0341795" transform="matrix(-0.268678 0.96323 -0.968434 -0.249272 35.1602 30.3428)" fill="#EE0000"/>
<ellipse id="Ellipse 1343_5" cx="0.0136181" cy="0.0141003" rx="0.0136181" ry="0.0141003" transform="matrix(-0.268678 0.96323 -0.968434 -0.249272 35.1445 31.1929)" fill="#EE0000"/>
<ellipse id="Ellipse 1344_5" cx="0.0643193" cy="0.0665964" rx="0.0643193" ry="0.0665964" transform="matrix(-0.268678 0.96323 -0.968434 -0.249272 36.2314 30.814)" fill="#EE0000"/>
<ellipse id="Ellipse 1345_5" cx="0.0470712" cy="0.0487377" rx="0.0470712" ry="0.0487377" transform="matrix(-0.268678 0.96323 -0.968434 -0.249272 36.9092 31.4741)" fill="#EE0000"/>
<ellipse id="Ellipse 1346_5" cx="0.0311705" cy="0.032274" rx="0.0311705" ry="0.032274" transform="matrix(-0.268678 0.96323 -0.968434 -0.249272 36.9492 31.0996)" fill="#EE0000"/>
<ellipse id="Ellipse 1347_5" cx="0.0311705" cy="0.032274" rx="0.0311705" ry="0.032274" transform="matrix(-0.268678 0.96323 -0.968434 -0.249272 36.3867 31.3364)" fill="#EE0000"/>
<ellipse id="Ellipse 1348_5" cx="0.0226026" cy="0.0234028" rx="0.0226026" ry="0.0234028" transform="matrix(-0.268678 0.96323 -0.968434 -0.249272 36.0947 31.6348)" fill="#EE0000"/>
<ellipse id="Ellipse 1351_4" cx="0.0226026" cy="0.0234028" rx="0.0226026" ry="0.0234028" transform="matrix(-0.268678 0.96323 -0.968434 -0.249272 36.6045 31.4731)" fill="#EE0000"/>
<ellipse id="Ellipse 1349_5" cx="0.0293384" cy="0.030377" rx="0.0293384" ry="0.030377" transform="matrix(-0.268678 0.96323 -0.968434 -0.249272 34.2695 30.7051)" fill="#EE0000"/>
<ellipse id="Ellipse 1350_5" cx="0.0358118" cy="0.0370797" rx="0.0358118" ry="0.0370797" transform="matrix(-0.268678 0.96323 -0.968434 -0.249272 36.9668 31.7075)" fill="#EE0000"/>
<ellipse id="Ellipse 1320_5" cx="0.0448133" cy="0.0463999" rx="0.0448133" ry="0.0463999" transform="matrix(-0.268678 0.96323 -0.968434 -0.249272 35.2207 30.7896)" fill="#EE0000"/>
<ellipse id="Ellipse 1321_5" cx="0.0448133" cy="0.0463999" rx="0.0448133" ry="0.0463999" transform="matrix(-0.268678 0.96323 -0.968434 -0.249272 35.5205 30.9014)" fill="#EE0000"/>
<ellipse id="Ellipse 1359_4" cx="0.0448133" cy="0.0463999" rx="0.0448133" ry="0.0463999" transform="matrix(-0.268678 0.96323 -0.968434 -0.249272 36.7549 32.3159)" fill="#EE0000"/>
<ellipse id="Ellipse 1322_5" cx="0.0448133" cy="0.0463999" rx="0.0448133" ry="0.0463999" transform="matrix(-0.268678 0.96323 -0.968434 -0.249272 35.0312 30.6021)" fill="#EE0000"/>
<ellipse id="Ellipse 1323_5" cx="0.030883" cy="0.0319764" rx="0.030883" ry="0.0319764" transform="matrix(-0.268678 0.96323 -0.968434 -0.249272 34.9395 30.7925)" fill="#EE0000"/>
<ellipse id="Ellipse 1326_5" cx="0.0448133" cy="0.0463999" rx="0.0448133" ry="0.0463999" transform="matrix(-0.268678 0.96323 -0.968434 -0.249272 34.3936 30.2993)" fill="#EE0000"/>
<ellipse id="Ellipse 1331_5" cx="0.0332832" cy="0.0344615" rx="0.0332832" ry="0.0344615" transform="matrix(-0.268678 0.96323 -0.968434 -0.249272 34.3945 30.0337)" fill="#EE0000"/>
<ellipse id="Ellipse 1332_5" cx="0.0332832" cy="0.0344615" rx="0.0332832" ry="0.0344615" transform="matrix(-0.268678 0.96323 -0.968434 -0.249272 33.9795 30.5112)" fill="#EE0000"/>
<ellipse id="Ellipse 1362_4" cx="0.0252667" cy="0.0261612" rx="0.0252667" ry="0.0261612" transform="matrix(-0.268678 0.96323 -0.968434 -0.249272 33.6611 30.2866)" fill="#EE0000"/>
<ellipse id="Ellipse 1352_4" cx="0.0332832" cy="0.0344615" rx="0.0332832" ry="0.0344615" transform="matrix(-0.268678 0.96323 -0.968434 -0.249272 34.8857 30.3223)" fill="#EE0000"/>
<ellipse id="Ellipse 1353_4" cx="0.0332832" cy="0.0344615" rx="0.0332832" ry="0.0344615" transform="matrix(-0.268678 0.96323 -0.968434 -0.249272 36.1855 30.5635)" fill="#EE0000"/>
<ellipse id="Ellipse 1354_4" cx="0.0332832" cy="0.0344615" rx="0.0332832" ry="0.0344615" transform="matrix(-0.268678 0.96323 -0.968434 -0.249272 35.7324 30.73)" fill="#EE0000"/>
<ellipse id="Ellipse 1357_4" cx="0.0263138" cy="0.0272454" rx="0.0263138" ry="0.0272454" transform="matrix(-0.268678 0.96323 -0.968434 -0.249272 36.6436 31.3755)" fill="#EE0000"/>
<ellipse id="Ellipse 1358_4" cx="0.0263138" cy="0.0272454" rx="0.0263138" ry="0.0272454" transform="matrix(-0.268678 0.96323 -0.968434 -0.249272 36.0117 30.9194)" fill="#EE0000"/>
<ellipse id="Ellipse 1333_5" cx="0.0332832" cy="0.0344615" rx="0.0332832" ry="0.0344615" transform="matrix(-0.268678 0.96323 -0.968434 -0.249272 33.9902 30.2886)" fill="#EE0000"/>
<ellipse id="Ellipse 1334_5" cx="0.0332832" cy="0.0344615" rx="0.0332832" ry="0.0344615" transform="matrix(-0.268678 0.96323 -0.968434 -0.249272 34.5605 30.4536)" fill="#EE0000"/>
<ellipse id="Ellipse 1335_5" cx="0.0332832" cy="0.0344615" rx="0.0332832" ry="0.0344615" transform="matrix(-0.268678 0.96323 -0.968434 -0.249272 33.9062 30.1851)" fill="#EE0000"/>
<ellipse id="Ellipse 1360_4" cx="0.0332832" cy="0.0344615" rx="0.0332832" ry="0.0344615" transform="matrix(-0.268678 0.96323 -0.968434 -0.249272 33.6953 30.604)" fill="#EE0000"/>
<ellipse id="Ellipse 1361_4" cx="0.0332832" cy="0.0344615" rx="0.0332832" ry="0.0344615" transform="matrix(-0.268678 0.96323 -0.968434 -0.249272 33.2891 30.4663)" fill="#EE0000"/>
<ellipse id="Ellipse 1364" cx="0.0332832" cy="0.0344615" rx="0.0332832" ry="0.0344615" transform="matrix(-0.268678 0.96323 -0.968434 -0.249272 33.0908 30.189)" fill="#EE0000"/>
<ellipse id="Ellipse 1365" cx="0.0214533" cy="0.0222128" rx="0.0214533" ry="0.0222128" transform="matrix(-0.268678 0.96323 -0.968434 -0.249272 33.4961 30.2988)" fill="#EE0000"/>
<ellipse id="Ellipse 1327_5" cx="0.0448133" cy="0.0463999" rx="0.0448133" ry="0.0463999" transform="matrix(-0.268678 0.96323 -0.968434 -0.249272 34.2109 30.437)" fill="#EE0000"/>
<ellipse id="Ellipse 1328_5" cx="0.06722" cy="0.0695998" rx="0.06722" ry="0.0695998" transform="matrix(-0.268678 0.96323 -0.968434 -0.249272 34.6807 30.2056)" fill="#EE0000"/>
<ellipse id="Ellipse 1329_5" cx="0.0259694" cy="0.0268888" rx="0.0259694" ry="0.0268888" transform="matrix(-0.268678 0.96323 -0.968434 -0.249272 35.2139 30.6553)" fill="#EE0000"/>
<ellipse id="Ellipse 1363_4" cx="0.045183" cy="0.0467826" rx="0.045183" ry="0.0467826" transform="matrix(-0.268678 0.96323 -0.968434 -0.249272 34.4434 30.4541)" fill="#EE0000"/>
<ellipse id="Ellipse 1330_5" cx="0.06722" cy="0.0695998" rx="0.06722" ry="0.0695998" transform="matrix(-0.268678 0.96323 -0.968434 -0.249272 36.6064 31.1182)" fill="#EE0000"/>
<ellipse id="Ellipse 1324_5" cx="0.0448133" cy="0.0463999" rx="0.0448133" ry="0.0463999" transform="matrix(-0.268678 0.96323 -0.968434 -0.249272 34.5459 30.6162)" fill="#EE0000"/>
<ellipse id="Ellipse 1325_5" cx="0.0357743" cy="0.0370408" rx="0.0357743" ry="0.0370408" transform="matrix(-0.268678 0.96323 -0.968434 -0.249272 34.6533 30.8013)" fill="#EE0000"/>
</g>
<g id="Group 674">
<ellipse id="Ellipse 1315_6" cx="0.0675288" cy="0.0679226" rx="0.0675288" ry="0.0679226" transform="matrix(0.668861 -0.743387 0.769377 0.638795 14.3301 18.4248)" fill="#EE0000"/>
<ellipse id="Ellipse 1366" cx="0.0675288" cy="0.0679226" rx="0.0675288" ry="0.0679226" transform="matrix(0.668861 -0.743387 0.769377 0.638795 17.4775 17.2192)" fill="#EE0000"/>
<ellipse id="Ellipse 1316_6" cx="0.0909614" cy="0.0914918" rx="0.0909614" ry="0.0914918" transform="matrix(0.668861 -0.743387 0.769377 0.638795 14.167 18.0327)" fill="#EE0000"/>
<ellipse id="Ellipse 1356_5" cx="0.0704301" cy="0.0708408" rx="0.0704301" ry="0.0708408" transform="matrix(0.668861 -0.743387 0.769377 0.638795 14.3008 17.4761)" fill="#EE0000"/>
<ellipse id="Ellipse 1355_5" cx="0.0925753" cy="0.0931151" rx="0.0925753" ry="0.0931151" transform="matrix(0.668861 -0.743387 0.769377 0.638795 14.1709 17.7896)" fill="#EE0000"/>
<ellipse id="Ellipse 1317_6" cx="0.0533566" cy="0.0536678" rx="0.0533566" ry="0.0536678" transform="matrix(0.668861 -0.743387 0.769377 0.638795 14.0371 18.3306)" fill="#EE0000"/>
<ellipse id="Ellipse 1367" cx="0.0301007" cy="0.0302763" rx="0.0301007" ry="0.0302763" transform="matrix(0.668861 -0.743387 0.769377 0.638795 17.7354 17.4106)" fill="#EE0000"/>
<ellipse id="Ellipse 1318_6" cx="0.068221" cy="0.0686189" rx="0.068221" ry="0.0686189" transform="matrix(0.668861 -0.743387 0.769377 0.638795 15 19.1655)" fill="#EE0000"/>
<ellipse id="Ellipse 1319_6" cx="0.0454807" cy="0.0457459" rx="0.0454807" ry="0.0457459" transform="matrix(0.668861 -0.743387 0.769377 0.638795 14.7666 19.5625)" fill="#EE0000"/>
<ellipse id="Ellipse 1337_6" cx="0.0444564" cy="0.0447156" rx="0.0444564" ry="0.0447156" transform="matrix(0.668861 -0.743387 0.769377 0.638795 14.3516 19.3364)" fill="#EE0000"/>
<ellipse id="Ellipse 1338_6" cx="0.0444564" cy="0.0447156" rx="0.0444564" ry="0.0447156" transform="matrix(0.668861 -0.743387 0.769377 0.638795 14.1699 18.5918)" fill="#EE0000"/>
<ellipse id="Ellipse 1339_6" cx="0.0242554" cy="0.0243969" rx="0.0242554" ry="0.0243969" transform="matrix(0.668861 -0.743387 0.769377 0.638795 14.6807 18.8584)" fill="#EE0000"/>
<ellipse id="Ellipse 1340_6" cx="0.0242554" cy="0.0243969" rx="0.0242554" ry="0.0243969" transform="matrix(0.668861 -0.743387 0.769377 0.638795 14.7734 18.6265)" fill="#EE0000"/>
<ellipse id="Ellipse 1341_6" cx="0.0242554" cy="0.0243969" rx="0.0242554" ry="0.0243969" transform="matrix(0.668861 -0.743387 0.769377 0.638795 14.5928 18.4146)" fill="#EE0000"/>
<ellipse id="Ellipse 1342_6" cx="0.0335024" cy="0.0336977" rx="0.0335024" ry="0.0336977" transform="matrix(0.668861 -0.743387 0.769377 0.638795 15.1143 19.5742)" fill="#EE0000"/>
<ellipse id="Ellipse 1343_6" cx="0.0453863" cy="0.045651" rx="0.0453863" ry="0.045651" transform="matrix(0.668861 -0.743387 0.769377 0.638795 14.7021 19.0957)" fill="#EE0000"/>
<ellipse id="Ellipse 1344_6" cx="0.0652772" cy="0.0656578" rx="0.0652772" ry="0.0656578" transform="matrix(0.668861 -0.743387 0.769377 0.638795 14.3643 18.7017)" fill="#EE0000"/>
<ellipse id="Ellipse 1368" cx="0.0370185" cy="0.0372343" rx="0.0370185" ry="0.0372343" transform="matrix(0.668861 -0.743387 0.769377 0.638795 17.7637 17.6362)" fill="#EE0000"/>
<ellipse id="Ellipse 1345_6" cx="0.0477722" cy="0.0480508" rx="0.0477722" ry="0.0480508" transform="matrix(0.668861 -0.743387 0.769377 0.638795 13.8408 17.8511)" fill="#EE0000"/>
<ellipse id="Ellipse 1346_6" cx="0.0316347" cy="0.0318191" rx="0.0316347" ry="0.0318191" transform="matrix(0.668861 -0.743387 0.769377 0.638795 13.8477 18.1445)" fill="#EE0000"/>
<ellipse id="Ellipse 1369" cx="0.01943" cy="0.0195433" rx="0.01943" ry="0.0195433" transform="matrix(0.668861 -0.743387 0.769377 0.638795 17.8701 17.104)" fill="#EE0000"/>
<ellipse id="Ellipse 1377" cx="0.01943" cy="0.0195433" rx="0.01943" ry="0.0195433" transform="matrix(0.668861 -0.743387 0.769377 0.638795 17.9961 17.3413)" fill="#EE0000"/>
<ellipse id="Ellipse 1378" cx="0.01943" cy="0.0195433" rx="0.01943" ry="0.0195433" transform="matrix(0.668861 -0.743387 0.769377 0.638795 18.1152 16.231)" fill="#EE0000"/>
<ellipse id="Ellipse 1383" cx="0.01943" cy="0.0195433" rx="0.01943" ry="0.0195433" transform="matrix(0.668861 -0.743387 0.769377 0.638795 17.4102 16.48)" fill="#EE0000"/>
<ellipse id="Ellipse 1385" cx="0.01943" cy="0.0195433" rx="0.01943" ry="0.0195433" transform="matrix(0.668861 -0.743387 0.769377 0.638795 17.6582 16.2598)" fill="#EE0000"/>
<ellipse id="Ellipse 1379" cx="0.01943" cy="0.0195433" rx="0.01943" ry="0.0195433" transform="matrix(0.668861 -0.743387 0.769377 0.638795 18.1152 15.8994)" fill="#EE0000"/>
<ellipse id="Ellipse 1380" cx="0.01943" cy="0.0195433" rx="0.01943" ry="0.0195433" transform="matrix(0.668861 -0.743387 0.769377 0.638795 18.0605 15.5405)" fill="#EE0000"/>
<ellipse id="Ellipse 1381" cx="0.0232013" cy="0.0233366" rx="0.0232013" ry="0.0233366" transform="matrix(0.668861 -0.743387 0.769377 0.638795 17.791 15.9155)" fill="#EE0000"/>
<ellipse id="Ellipse 1382" cx="0.0232013" cy="0.0233366" rx="0.0232013" ry="0.0233366" transform="matrix(0.668861 -0.743387 0.769377 0.638795 17.6416 16.1426)" fill="#EE0000"/>
<ellipse id="Ellipse 1373" cx="0.01943" cy="0.0195433" rx="0.01943" ry="0.0195433" transform="matrix(0.668861 -0.743387 0.769377 0.638795 17.8447 16.606)" fill="#EE0000"/>
<ellipse id="Ellipse 1375" cx="0.01943" cy="0.0195433" rx="0.01943" ry="0.0195433" transform="matrix(0.668861 -0.743387 0.769377 0.638795 17.9658 16.1475)" fill="#EE0000"/>
<ellipse id="Ellipse 1376" cx="0.0306611" cy="0.0308399" rx="0.0306611" ry="0.0308399" transform="matrix(0.668861 -0.743387 0.769377 0.638795 17.667 16.7192)" fill="#EE0000"/>
<ellipse id="Ellipse 1374" cx="0.0269862" cy="0.0271436" rx="0.0269862" ry="0.0271436" transform="matrix(0.668861 -0.743387 0.769377 0.638795 17.54 16.7314)" fill="#EE0000"/>
<ellipse id="Ellipse 1347_6" cx="0.0316347" cy="0.0318191" rx="0.0316347" ry="0.0318191" transform="matrix(0.668861 -0.743387 0.769377 0.638795 13.7744 18.0815)" fill="#EE0000"/>
<ellipse id="Ellipse 1370" cx="0.0316347" cy="0.0318191" rx="0.0316347" ry="0.0318191" transform="matrix(0.668861 -0.743387 0.769377 0.638795 17.5566 17.0127)" fill="#EE0000"/>
<ellipse id="Ellipse 1371" cx="0.0349668" cy="0.0351707" rx="0.0349668" ry="0.0351707" transform="matrix(0.668861 -0.743387 0.769377 0.638795 17.6885 17.0571)" fill="#EE0000"/>
<ellipse id="Ellipse 1372" cx="0.0475204" cy="0.0477975" rx="0.0475204" ry="0.0477975" transform="matrix(0.668861 -0.743387 0.769377 0.638795 17.7051 16.9062)" fill="#EE0000"/>
<ellipse id="Ellipse 1348_6" cx="0.0229392" cy="0.023073" rx="0.0229392" ry="0.023073" transform="matrix(0.668861 -0.743387 0.769377 0.638795 13.7861 18.7661)" fill="#EE0000"/>
<ellipse id="Ellipse 1351_5" cx="0.0229392" cy="0.023073" rx="0.0229392" ry="0.023073" transform="matrix(0.668861 -0.743387 0.769377 0.638795 13.6416 18.3042)" fill="#EE0000"/>
<ellipse id="Ellipse 1349_6" cx="0.0297753" cy="0.0299489" rx="0.0297753" ry="0.0299489" transform="matrix(0.668861 -0.743387 0.769377 0.638795 14.0723 17.3242)" fill="#EE0000"/>
<ellipse id="Ellipse 1350_6" cx="0.0363451" cy="0.0365571" rx="0.0363451" ry="0.0365571" transform="matrix(0.668861 -0.743387 0.769377 0.638795 14.1064 17.5898)" fill="#EE0000"/>
<ellipse id="Ellipse 1320_6" cx="0.0454807" cy="0.0457459" rx="0.0454807" ry="0.0457459" transform="matrix(0.668861 -0.743387 0.769377 0.638795 15.2627 19.1475)" fill="#EE0000"/>
<ellipse id="Ellipse 1321_6" cx="0.0454807" cy="0.0457459" rx="0.0454807" ry="0.0457459" transform="matrix(0.668861 -0.743387 0.769377 0.638795 14.1035 18.8184)" fill="#EE0000"/>
<ellipse id="Ellipse 1359_5" cx="0.0454807" cy="0.0457459" rx="0.0454807" ry="0.0457459" transform="matrix(0.668861 -0.743387 0.769377 0.638795 14.3184 16.9927)" fill="#EE0000"/>
<ellipse id="Ellipse 1322_6" cx="0.0454807" cy="0.0457459" rx="0.0454807" ry="0.0457459" transform="matrix(0.668861 -0.743387 0.769377 0.638795 15.3477 19.395)" fill="#EE0000"/>
<ellipse id="Ellipse 1323_6" cx="0.068221" cy="0.0686189" rx="0.068221" ry="0.0686189" transform="matrix(0.668861 -0.743387 0.769377 0.638795 15.5146 19.5156)" fill="#EE0000"/>
<ellipse id="Ellipse 1326_6" cx="0.0454807" cy="0.0457459" rx="0.0454807" ry="0.0457459" transform="matrix(0.668861 -0.743387 0.769377 0.638795 15.5664 19.8994)" fill="#EE0000"/>
<ellipse id="Ellipse 1331_6" cx="0.0337788" cy="0.0339758" rx="0.0337788" ry="0.0339758" transform="matrix(0.668861 -0.743387 0.769377 0.638795 15.6631 20.1733)" fill="#EE0000"/>
<ellipse id="Ellipse 1332_6" cx="0.0337788" cy="0.0339758" rx="0.0337788" ry="0.0339758" transform="matrix(0.668861 -0.743387 0.769377 0.638795 15.5879 20.3931)" fill="#EE0000"/>
<ellipse id="Ellipse 1362_5" cx="0.025643" cy="0.0257925" rx="0.025643" ry="0.0257925" transform="matrix(0.668861 -0.743387 0.769377 0.638795 16.4375 20.2529)" fill="#EE0000"/>
<ellipse id="Ellipse 1352_5" cx="0.0337788" cy="0.0339758" rx="0.0337788" ry="0.0339758" transform="matrix(0.668861 -0.743387 0.769377 0.638795 15.3516 19.708)" fill="#EE0000"/>
<ellipse id="Ellipse 1353_5" cx="0.027135" cy="0.0272932" rx="0.027135" ry="0.0272932" transform="matrix(0.668861 -0.743387 0.769377 0.638795 14.2959 18.9507)" fill="#EE0000"/>
<ellipse id="Ellipse 1364_2" cx="0.027135" cy="0.0272932" rx="0.027135" ry="0.0272932" transform="matrix(0.668861 -0.743387 0.769377 0.638795 17.4102 16.9014)" fill="#EE0000"/>
<ellipse id="Ellipse 1365_2" cx="0.0495393" cy="0.0498282" rx="0.0495393" ry="0.0498282" transform="matrix(0.668861 -0.743387 0.769377 0.638795 17.5195 16.5249)" fill="#EE0000"/>
<ellipse id="Ellipse 1384" cx="0.0688" cy="0.0692012" rx="0.0688" ry="0.0692012" transform="matrix(0.668861 -0.743387 0.769377 0.638795 17.333 16.2334)" fill="#EE0000"/>
<ellipse id="Ellipse 1354_5" cx="0.0337788" cy="0.0339758" rx="0.0337788" ry="0.0339758" transform="matrix(0.668861 -0.743387 0.769377 0.638795 14.3408 17.1035)" fill="#EE0000"/>
<ellipse id="Ellipse 1357_5" cx="0.0267057" cy="0.0268614" rx="0.0267057" ry="0.0268614" transform="matrix(0.668861 -0.743387 0.769377 0.638795 13.7432 18.4663)" fill="#EE0000"/>
<ellipse id="Ellipse 1358_5" cx="0.0267057" cy="0.0268614" rx="0.0267057" ry="0.0268614" transform="matrix(0.668861 -0.743387 0.769377 0.638795 14.5186 16.7246)" fill="#EE0000"/>
<ellipse id="Ellipse 1333_6" cx="0.0337788" cy="0.0339758" rx="0.0337788" ry="0.0339758" transform="matrix(0.668861 -0.743387 0.769377 0.638795 14.9551 19.3472)" fill="#EE0000"/>
<ellipse id="Ellipse 1334_6" cx="0.0337788" cy="0.0339758" rx="0.0337788" ry="0.0339758" transform="matrix(0.668861 -0.743387 0.769377 0.638795 15.7041 19.7256)" fill="#EE0000"/>
<ellipse id="Ellipse 1335_6" cx="0.0337788" cy="0.0339758" rx="0.0337788" ry="0.0339758" transform="matrix(0.668861 -0.743387 0.769377 0.638795 14.3936 19.1426)" fill="#EE0000"/>
<ellipse id="Ellipse 1360_5" cx="0.0337788" cy="0.0339758" rx="0.0337788" ry="0.0339758" transform="matrix(0.668861 -0.743387 0.769377 0.638795 16.6074 20.3613)" fill="#EE0000"/>
<ellipse id="Ellipse 1327_6" cx="0.0454807" cy="0.0457459" rx="0.0454807" ry="0.0457459" transform="matrix(0.668861 -0.743387 0.769377 0.638795 14.6279 19.3809)" fill="#EE0000"/>
<ellipse id="Ellipse 1328_6" cx="0.068221" cy="0.0686189" rx="0.068221" ry="0.0686189" transform="matrix(0.668861 -0.743387 0.769377 0.638795 14.7734 18.998)" fill="#EE0000"/>
<ellipse id="Ellipse 1329_6" cx="0.068221" cy="0.0686189" rx="0.068221" ry="0.0686189" transform="matrix(0.668861 -0.743387 0.769377 0.638795 15.1191 19.3062)" fill="#EE0000"/>
<ellipse id="Ellipse 1363_5" cx="0.0458558" cy="0.0461232" rx="0.0458558" ry="0.0461232" transform="matrix(0.668861 -0.743387 0.769377 0.638795 14.5225 19.5991)" fill="#EE0000"/>
<ellipse id="Ellipse 1330_6" cx="0.068221" cy="0.0686189" rx="0.068221" ry="0.0686189" transform="matrix(0.668861 -0.743387 0.769377 0.638795 14.1641 18.2715)" fill="#EE0000"/>
<ellipse id="Ellipse 1324_6" cx="0.0454807" cy="0.0457459" rx="0.0454807" ry="0.0457459" transform="matrix(0.668861 -0.743387 0.769377 0.638795 15.791 19.5859)" fill="#EE0000"/>
<ellipse id="Ellipse 1325_6" cx="0.068221" cy="0.0686189" rx="0.068221" ry="0.0686189" transform="matrix(0.668861 -0.743387 0.769377 0.638795 15.2305 19.5298)" fill="#EE0000"/>
</g>
<g id="Group 670">
<ellipse id="Ellipse 1315_7" cx="2.9922" cy="25.2202" rx="0.150403" ry="0.144479" fill="#EE0000"/>
<ellipse id="Ellipse 1355_6" cx="3.18947" cy="23.7783" rx="0.150403" ry="0.144479" fill="#EE0000"/>
<ellipse id="Ellipse 1356_6" cx="2.74583" cy="25.3013" rx="0.0661408" ry="0.063536" fill="#EE0000"/>
<ellipse id="Ellipse 1354_6" cx="3.03742" cy="25.919" rx="0.118479" ry="0.113813" fill="#EE0000"/>
<ellipse id="Ellipse 1316_7" cx="3.12325" cy="24.9007" rx="0.120322" ry="0.115584" fill="#EE0000"/>
<ellipse id="Ellipse 1317_7" cx="3.12442" cy="24.3284" rx="0.0902416" ry="0.0866877" fill="#EE0000"/>
<ellipse id="Ellipse 1318_7" cx="2.85684" cy="26.8191" rx="0.0902416" ry="0.0866877" fill="#EE0000"/>
<ellipse id="Ellipse 1319_7" cx="3.58458" cy="22.0285" rx="0.060161" ry="0.0577918" fill="#EE0000"/>
<ellipse id="Ellipse 1385_2" cx="2.69102" cy="23.4245" rx="0.060161" ry="0.0577918" fill="#EE0000"/>
<ellipse id="Ellipse 1337_7" cx="2.10891" cy="26.1245" rx="0.0249209" ry="0.0239395" fill="#EE0000"/>
<ellipse id="Ellipse 1353_6" cx="2.34621" cy="27.8306" rx="0.0249209" ry="0.0239395" fill="#EE0000"/>
<ellipse id="Ellipse 1338_7" cx="2.70822" cy="25.5238" rx="0.0588061" ry="0.0564902" fill="#EE0000"/>
<ellipse id="Ellipse 1339_7" cx="2.84166" cy="26.2022" rx="0.0320846" ry="0.0308211" fill="#EE0000"/>
<ellipse id="Ellipse 1340_7" cx="3.15611" cy="26.0933" rx="0.0320846" ry="0.0308211" fill="#EE0000"/>
<ellipse id="Ellipse 1341_7" cx="3.22056" cy="25.7452" rx="0.0320846" ry="0.0308211" fill="#EE0000"/>
<ellipse id="Ellipse 1352_6" cx="2.07701" cy="25.8897" rx="0.0320846" ry="0.0308211" fill="#EE0000"/>
<ellipse id="Ellipse 1342_7" cx="2.51108" cy="25.9444" rx="0.0442781" ry="0.0425343" fill="#EE0000"/>
<ellipse id="Ellipse 1357_6" cx="2.4349" cy="25.3223" rx="0.0442781" ry="0.0425343" fill="#EE0000"/>
<ellipse id="Ellipse 1358_6" cx="2.04428" cy="25.5098" rx="0.0442781" ry="0.0425343" fill="#EE0000"/>
<ellipse id="Ellipse 1359_6" cx="2.34604" cy="24.1988" rx="0.0442781" ry="0.0425343" fill="#EE0000"/>
<ellipse id="Ellipse 1360_6" cx="2.92416" cy="22.9742" rx="0.0442781" ry="0.0425343" fill="#EE0000"/>
<ellipse id="Ellipse 1380_2" cx="3.20834" cy="22.2916" rx="0.0442781" ry="0.0425343" fill="#EE0000"/>
<ellipse id="Ellipse 1381_2" cx="3.29623" cy="22.7383" rx="0.0442781" ry="0.0425343" fill="#EE0000"/>
<ellipse id="Ellipse 1382_2" cx="3.16876" cy="23.0658" rx="0.0740373" ry="0.0711216" fill="#EE0000"/>
<ellipse id="Ellipse 1383_2" cx="2.99075" cy="23.5289" rx="0.0483695" ry="0.0464646" fill="#EE0000"/>
<ellipse id="Ellipse 1384_2" cx="2.89407" cy="23.7911" rx="0.0483695" ry="0.0464646" fill="#EE0000"/>
<ellipse id="Ellipse 1361_5" cx="2.52279" cy="23.8799" rx="0.0442781" ry="0.0425343" fill="#EE0000"/>
<ellipse id="Ellipse 1362_6" cx="2.25646" cy="24.6532" rx="0.0425917" ry="0.0409144" fill="#EE0000"/>
<ellipse id="Ellipse 1363_6" cx="2.83165" cy="24.5014" rx="0.0425917" ry="0.0409144" fill="#EE0000"/>
<ellipse id="Ellipse 1343_7" cx="2.93211" cy="26.4317" rx="0.0600362" ry="0.0576718" fill="#EE0000"/>
<ellipse id="Ellipse 1344_7" cx="2.79338" cy="25.7763" rx="0.0863475" ry="0.0829469" fill="#EE0000"/>
<ellipse id="Ellipse 1345_7" cx="3.18819" cy="24.591" rx="0.0631922" ry="0.0607036" fill="#EE0000"/>
<ellipse id="Ellipse 1346_7" cx="2.87384" cy="24.8253" rx="0.0418096" ry="0.0401631" fill="#EE0000"/>
<ellipse id="Ellipse 1347_7" cx="2.68829" cy="24.692" rx="0.0418096" ry="0.0401631" fill="#EE0000"/>
<ellipse id="Ellipse 1348_7" cx="2.81257" cy="24.0414" rx="0.0303436" ry="0.0291486" fill="#EE0000"/>
<ellipse id="Ellipse 1349_7" cx="2.69072" cy="24.3283" rx="0.0393522" ry="0.0378024" fill="#EE0000"/>
<ellipse id="Ellipse 1350_7" cx="2.60374" cy="25.1741" rx="0.0480767" ry="0.0461833" fill="#EE0000"/>
<ellipse id="Ellipse 1320_7" cx="3.06797" cy="27.0212" rx="0.060161" ry="0.0577918" fill="#EE0000"/>
<ellipse id="Ellipse 1321_7" cx="3.06797" cy="26.8478" rx="0.060161" ry="0.0577918" fill="#EE0000"/>
<ellipse id="Ellipse 1322_7" cx="2.88731" cy="27.3102" rx="0.060161" ry="0.0577918" fill="#EE0000"/>
<ellipse id="Ellipse 1323_7" cx="3.09805" cy="27.3391" rx="0.0902416" ry="0.0866877" fill="#EE0000"/>
<ellipse id="Ellipse 1326_7" cx="2.70665" cy="28.1769" rx="0.060161" ry="0.0577918" fill="#EE0000"/>
<ellipse id="Ellipse 1331_7" cx="2.3464" cy="28.2499" rx="0.0446434" ry="0.0428853" fill="#EE0000"/>
<ellipse id="Ellipse 1332_7" cx="3.12765" cy="28.3075" rx="0.0446434" ry="0.0428853" fill="#EE0000"/>
<ellipse id="Ellipse 1333_7" cx="2.81222" cy="28.6498" rx="0.0446434" ry="0.0428853" fill="#EE0000"/>
<ellipse id="Ellipse 1334_7" cx="3.20578" cy="29.434" rx="0.0446434" ry="0.0428853" fill="#EE0000"/>
<ellipse id="Ellipse 1364_3" cx="3.58273" cy="29.7777" rx="0.0446434" ry="0.0428853" fill="#EE0000"/>
<ellipse id="Ellipse 1368_2" cx="4.03292" cy="30.4735" rx="0.0446434" ry="0.0428853" fill="#EE0000"/>
<ellipse id="Ellipse 1369_2" cx="4.05477" cy="30.7597" rx="0.0274237" ry="0.0263437" fill="#EE0000"/>
<ellipse id="Ellipse 1370_2" cx="3.75008" cy="31.5044" rx="0.0274237" ry="0.0263437" fill="#EE0000"/>
<ellipse id="Ellipse 1376_2" cx="3.74227" cy="30.8579" rx="0.0274237" ry="0.0263437" fill="#EE0000"/>
<ellipse id="Ellipse 1377_2" cx="3.46297" cy="31.1235" rx="0.0274237" ry="0.0263437" fill="#EE0000"/>
<ellipse id="Ellipse 1378_2" cx="4.54793" cy="32.4682" rx="0.0274237" ry="0.0263437" fill="#EE0000"/>
<ellipse id="Ellipse 1379_2" cx="4.54793" cy="32.1767" rx="0.0274237" ry="0.0263437" fill="#EE0000"/>
<ellipse id="Ellipse 1371_2" cx="4.14461" cy="31.2944" rx="0.0274237" ry="0.0263437" fill="#EE0000"/>
<ellipse id="Ellipse 1386" cx="5.02645" cy="33.9468" rx="0.0274237" ry="0.0263437" fill="#EE0000"/>
<ellipse id="Ellipse 1387" cx="5.4952" cy="34.7119" rx="0.0274237" ry="0.0263437" fill="#EE0000"/>
<ellipse id="Ellipse 1372_2" cx="3.58338" cy="30.3723" rx="0.0159962" ry="0.0153662" fill="#EE0000"/>
<ellipse id="Ellipse 1373_2" cx="3.7145" cy="30.2958" rx="0.0299334" ry="0.0287545" fill="#EE0000"/>
<ellipse id="Ellipse 1374_2" cx="3.64419" cy="29.977" rx="0.0299334" ry="0.0287545" fill="#EE0000"/>
<ellipse id="Ellipse 1375_2" cx="3.94595" cy="30.3437" rx="0.0299334" ry="0.0287545" fill="#EE0000"/>
<ellipse id="Ellipse 1365_3" cx="3.43118" cy="30.113" rx="0.0317658" ry="0.0305148" fill="#EE0000"/>
<ellipse id="Ellipse 1366_2" cx="3.74661" cy="30.2073" rx="0.0317658" ry="0.0305148" fill="#EE0000"/>
<ellipse id="Ellipse 1351_6" cx="3.07882" cy="28.8993" rx="0.0446434" ry="0.0428853" fill="#EE0000"/>
<ellipse id="Ellipse 1335_7" cx="3.45871" cy="28.6498" rx="0.0446434" ry="0.0428853" fill="#EE0000"/>
<ellipse id="Ellipse 1327_7" cx="2.94786" cy="28.3508" rx="0.060161" ry="0.0577918" fill="#EE0000"/>
<ellipse id="Ellipse 1328_7" cx="3.27872" cy="28.1482" rx="0.0902416" ry="0.0866877" fill="#EE0000"/>
<ellipse id="Ellipse 1329_7" cx="0.0899316" cy="0.0870091" rx="0.0899316" ry="0.0870091" transform="matrix(0.957854 0.287256 -0.309076 0.951037 3.21484 28.4756)" fill="#EE0000"/>
<ellipse id="Ellipse 1336_3" cx="0.0899316" cy="0.0870091" rx="0.0899316" ry="0.0870091" transform="matrix(0.957854 0.287256 -0.309076 0.951037 3.36621 28.811)" fill="#EE0000"/>
<ellipse id="Ellipse 1367_2" cx="0.0899316" cy="0.0870091" rx="0.0899316" ry="0.0870091" transform="matrix(0.957854 0.287256 -0.309076 0.951037 3.42578 29.5327)" fill="#EE0000"/>
<ellipse id="Ellipse 1330_7" cx="3.34024" cy="27.9173" rx="0.0902416" ry="0.0866877" fill="#EE0000"/>
<path id="Vector 1995" d="M3.24599 23.6443C3.21286 23.3579 3.84342 21.9141 3.94201 21.8667C3.49188 23.1518 3.34655 25.4265 3.34655 25.5102C3.34655 25.6148 3.49443 27.5903 3.49443 27.9161C3.49443 28.2418 3.78799 28.8607 4.29615 29.8603C4.80431 30.8598 4.29615 30.9644 4.76802 31.8477C5.14551 32.5544 6.44173 35.6445 7.04266 37.1012C6.61515 36.4348 5.75289 35.0695 5.72385 34.9394C5.68755 34.7766 5.15519 33.9631 5.0221 33.5098C4.88901 33.0565 4.9616 33.2657 4.90111 33.0914C4.84061 32.917 4.71962 32.5683 4.65912 32.4637C4.59863 32.3591 4.33245 31.8245 4.23565 31.6269C4.13886 31.4293 4.22355 31.1504 4.13886 30.8366C4.05417 30.5228 4.04207 30.7203 3.89688 30.4065C3.75169 30.0927 3.6307 30.1857 3.43711 29.7789C3.28224 29.4535 3.31221 29.2554 3.34655 29.197C3.33275 29.0436 3.43173 28.6507 3.34655 28.5052C3.24007 28.3234 3.25782 28.5166 3.24599 28.3745C3.23416 28.2324 3.21641 28.0677 3.21641 27.5903C3.16909 27.3858 3.15726 27.5676 3.12176 27.3915C3.08625 27.2153 3.12176 27.1414 3.0626 26.7153C3.00344 26.6187 3.00346 26.63 3.0626 26.4766C3.12174 26.3232 3.0626 26.2948 3.00346 25.8743C2.94432 25.4538 3.0626 25.7322 3.0626 25.5901C3.0626 25.4481 3.0626 25.3799 3.12176 25.2662C3.18091 25.1526 3.09809 24.9584 3.00346 24.5322C2.85746 24.2394 2.93838 24.2491 2.93838 24.0786C3.00346 23.9572 2.93521 24.1349 3.07615 23.9572C3.07615 23.8034 3.2874 24.0022 3.24599 23.6443Z" fill="#EE0000"/>
<ellipse id="Ellipse 1324_7" cx="3.06797" cy="27.8884" rx="0.060161" ry="0.0577918" fill="#EE0000"/>
<ellipse id="Ellipse 1325_7" cx="3.21817" cy="27.6858" rx="0.0902416" ry="0.0866877" fill="#EE0000"/>
</g>
<g id="Group 676_2">
<ellipse id="Ellipse 1315_8" cx="0.149894" cy="0.145007" rx="0.149894" ry="0.145007" transform="matrix(-0.958555 -0.284908 -0.306586 0.951843 44.9326 31.7412)" fill="#EE0000"/>
<ellipse id="Ellipse 1355_7" cx="0.149894" cy="0.145007" rx="0.149894" ry="0.145007" transform="matrix(-0.958555 -0.284908 -0.306586 0.951843 45.2812 30.3564)" fill="#EE0000"/>
<ellipse id="Ellipse 1356_7" cx="0.0659173" cy="0.0637678" rx="0.0659173" ry="0.0637678" transform="matrix(-0.958555 -0.284908 -0.306586 0.951843 45.1309 31.9907)" fill="#EE0000"/>
<ellipse id="Ellipse 1354_7" cx="0.118078" cy="0.114228" rx="0.118078" ry="0.114228" transform="matrix(-0.958555 -0.284908 -0.306586 0.951843 44.7275 32.4648)" fill="#EE0000"/>
<ellipse id="Ellipse 1316_8" cx="0.119916" cy="0.116005" rx="0.119916" ry="0.116005" transform="matrix(-0.958555 -0.284908 -0.306586 0.951843 44.9609 31.4663)" fill="#EE0000"/>
<ellipse id="Ellipse 1317_8" cx="0.0899366" cy="0.0870039" rx="0.0899366" ry="0.0870039" transform="matrix(-0.958555 -0.284908 -0.306586 0.951843 45.0996 30.9385)" fill="#EE0000"/>
<ellipse id="Ellipse 1318_8" cx="0.0899366" cy="0.0870039" rx="0.0899366" ry="0.0870039" transform="matrix(-0.958555 -0.284908 -0.306586 0.951843 44.5879 33.3936)" fill="#EE0000"/>
<ellipse id="Ellipse 1319_8" cx="0.0599578" cy="0.0580026" rx="0.0599578" ry="0.0580026" transform="matrix(-0.958555 -0.284908 -0.306586 0.951843 45.3291 28.6299)" fill="#EE0000"/>
<ellipse id="Ellipse 1385_3" cx="0.0599578" cy="0.0580026" rx="0.0599578" ry="0.0580026" transform="matrix(-0.958555 -0.284908 -0.306586 0.951843 45.7539 30.2173)" fill="#EE0000"/>
<ellipse id="Ellipse 1337_8" cx="0.0248367" cy="0.0240268" rx="0.0248367" ry="0.0240268" transform="matrix(-0.958555 -0.284908 -0.306586 0.951843 45.4355 32.9839)" fill="#EE0000"/>
<ellipse id="Ellipse 1353_7" cx="0.0248367" cy="0.0240268" rx="0.0248367" ry="0.0240268" transform="matrix(-0.958555 -0.284908 -0.306586 0.951843 44.6836 34.5464)" fill="#EE0000"/>
<ellipse id="Ellipse 1338_8" cx="0.0586074" cy="0.0566963" rx="0.0586074" ry="0.0566963" transform="matrix(-0.958555 -0.284908 -0.306586 0.951843 45.0898 32.2183)" fill="#EE0000"/>
<ellipse id="Ellipse 1339_8" cx="0.0319762" cy="0.0309335" rx="0.0319762" ry="0.0309335" transform="matrix(-0.958555 -0.284908 -0.306586 0.951843 44.7197 32.8457)" fill="#EE0000"/>
<ellipse id="Ellipse 1340_8" cx="0.0319762" cy="0.0309335" rx="0.0319762" ry="0.0309335" transform="matrix(-0.958555 -0.284908 -0.306586 0.951843 44.4531 32.6528)" fill="#EE0000"/>
<ellipse id="Ellipse 1341_8" cx="0.0319762" cy="0.0309335" rx="0.0319762" ry="0.0309335" transform="matrix(-0.958555 -0.284908 -0.306586 0.951843 44.499 32.3018)" fill="#EE0000"/>
<ellipse id="Ellipse 1352_7" cx="0.0319762" cy="0.0309335" rx="0.0319762" ry="0.0309335" transform="matrix(-0.958555 -0.284908 -0.306586 0.951843 45.5469 32.7646)" fill="#EE0000"/>
<ellipse id="Ellipse 1342_8" cx="0.0441285" cy="0.0426895" rx="0.0441285" ry="0.0426895" transform="matrix(-0.958555 -0.284908 -0.306586 0.951843 45.1299 32.6855)" fill="#EE0000"/>
<ellipse id="Ellipse 1357_7" cx="0.0441285" cy="0.0426895" rx="0.0441285" ry="0.0426895" transform="matrix(-0.958555 -0.284908 -0.306586 0.951843 45.3945 32.1128)" fill="#EE0000"/>
<ellipse id="Ellipse 1358_7" cx="0.0441285" cy="0.0426895" rx="0.0441285" ry="0.0426895" transform="matrix(-0.958555 -0.284908 -0.306586 0.951843 45.71 32.4028)" fill="#EE0000"/>
<ellipse id="Ellipse 1359_7" cx="0.0441285" cy="0.0426895" rx="0.0441285" ry="0.0426895" transform="matrix(-0.958555 -0.284908 -0.306586 0.951843 45.8262 31.0649)" fill="#EE0000"/>
<ellipse id="Ellipse 1360_7" cx="0.0441285" cy="0.0426895" rx="0.0441285" ry="0.0426895" transform="matrix(-0.958555 -0.284908 -0.306586 0.951843 45.6504 29.7305)" fill="#EE0000"/>
<ellipse id="Ellipse 1380_3" cx="0.0441285" cy="0.0426895" rx="0.0441285" ry="0.0426895" transform="matrix(-0.958555 -0.284908 -0.306586 0.951843 45.5889 28.998)" fill="#EE0000"/>
<ellipse id="Ellipse 1381_3" cx="0.0441285" cy="0.0426895" rx="0.0441285" ry="0.0426895" transform="matrix(-0.958555 -0.284908 -0.306586 0.951843 45.3662 29.3994)" fill="#EE0000"/>
<ellipse id="Ellipse 1382_3" cx="0.0737871" cy="0.0713811" rx="0.0737871" ry="0.0713811" transform="matrix(-0.958555 -0.284908 -0.306586 0.951843 45.4258 29.73)" fill="#EE0000"/>
<ellipse id="Ellipse 1383_3" cx="0.0482061" cy="0.0466342" rx="0.0482061" ry="0.0466342" transform="matrix(-0.958555 -0.284908 -0.306586 0.951843 45.4209 30.2393)" fill="#EE0000"/>
<ellipse id="Ellipse 1384_3" cx="0.0482061" cy="0.0466342" rx="0.0482061" ry="0.0466342" transform="matrix(-0.958555 -0.284908 -0.306586 0.951843 45.4326 30.5171)" fill="#EE0000"/>
<ellipse id="Ellipse 1361_6" cx="0.0441285" cy="0.0426895" rx="0.0441285" ry="0.0426895" transform="matrix(-0.958555 -0.284908 -0.306586 0.951843 45.7539 30.71)" fill="#EE0000"/>
<ellipse id="Ellipse 1362_7" cx="0.0424478" cy="0.0410637" rx="0.0424478" ry="0.0410637" transform="matrix(-0.958555 -0.284908 -0.306586 0.951843 45.7676 31.5254)" fill="#EE0000"/>
<ellipse id="Ellipse 1363_7" cx="0.0424478" cy="0.0410637" rx="0.0424478" ry="0.0410637" transform="matrix(-0.958555 -0.284908 -0.306586 0.951843 45.2666 31.2173)" fill="#EE0000"/>
<ellipse id="Ellipse 1343_8" cx="0.0598333" cy="0.0578823" rx="0.0598333" ry="0.0578823" transform="matrix(-0.958555 -0.284908 -0.306586 0.951843 44.5977 33.022)" fill="#EE0000"/>
<ellipse id="Ellipse 1344_8" cx="0.0860557" cy="0.0832496" rx="0.0860557" ry="0.0832496" transform="matrix(-0.958555 -0.284908 -0.306586 0.951843 44.9648 32.418)" fill="#EE0000"/>
<ellipse id="Ellipse 1345_8" cx="0.0629787" cy="0.0609251" rx="0.0629787" ry="0.0609251" transform="matrix(-0.958555 -0.284908 -0.306586 0.951843 44.9238 31.1885)" fill="#EE0000"/>
<ellipse id="Ellipse 1346_8" cx="0.0416683" cy="0.0403096" rx="0.0416683" ry="0.0403096" transform="matrix(-0.958555 -0.284908 -0.306586 0.951843 45.125 31.5151)" fill="#EE0000"/>
<ellipse id="Ellipse 1347_8" cx="0.0416683" cy="0.0403096" rx="0.0416683" ry="0.0403096" transform="matrix(-0.958555 -0.284908 -0.306586 0.951843 45.3438 31.4404)" fill="#EE0000"/>
<ellipse id="Ellipse 1348_8" cx="0.030241" cy="0.0292549" rx="0.030241" ry="0.0292549" transform="matrix(-0.958555 -0.284908 -0.306586 0.951843 45.4102 30.791)" fill="#EE0000"/>
<ellipse id="Ellipse 1349_8" cx="0.0392192" cy="0.0379403" rx="0.0392192" ry="0.0379403" transform="matrix(-0.958555 -0.284908 -0.306586 0.951843 45.4492 31.0938)" fill="#EE0000"/>
<ellipse id="Ellipse 1350_8" cx="0.0479142" cy="0.0463518" rx="0.0479142" ry="0.0463518" transform="matrix(-0.958555 -0.284908 -0.306586 0.951843 45.2832 31.9209)" fill="#EE0000"/>
<ellipse id="Ellipse 1320_8" cx="0.0599578" cy="0.0580026" rx="0.0599578" ry="0.0580026" transform="matrix(-0.958555 -0.284908 -0.306586 0.951843 44.2871 33.5464)" fill="#EE0000"/>
<ellipse id="Ellipse 1321_8" cx="0.0599578" cy="0.0580026" rx="0.0599578" ry="0.0580026" transform="matrix(-0.958555 -0.284908 -0.306586 0.951843 44.3398 33.3809)" fill="#EE0000"/>
<ellipse id="Ellipse 1322_8" cx="0.0599578" cy="0.0580026" rx="0.0599578" ry="0.0580026" transform="matrix(-0.958555 -0.284908 -0.306586 0.951843 44.3701 33.8735)" fill="#EE0000"/>
<ellipse id="Ellipse 1323_8" cx="0.0899366" cy="0.0870039" rx="0.0899366" ry="0.0870039" transform="matrix(-0.958555 -0.284908 -0.306586 0.951843 44.1982 33.8223)" fill="#EE0000"/>
<ellipse id="Ellipse 1326_8" cx="0.0599578" cy="0.0580026" rx="0.0599578" ry="0.0580026" transform="matrix(-0.958555 -0.284908 -0.306586 0.951843 44.2764 34.7529)" fill="#EE0000"/>
<ellipse id="Ellipse 1331_8" cx="0.0444926" cy="0.0430418" rx="0.0444926" ry="0.0430418" transform="matrix(-0.958555 -0.284908 -0.306586 0.951843 44.5791 34.9346)" fill="#EE0000"/>
<ellipse id="Ellipse 1332_8" cx="0.0444926" cy="0.0430418" rx="0.0444926" ry="0.0430418" transform="matrix(-0.958555 -0.284908 -0.306586 0.951843 43.8145 34.7681)" fill="#EE0000"/>
<ellipse id="Ellipse 1333_8" cx="0.0444926" cy="0.0430418" rx="0.0444926" ry="0.0430418" transform="matrix(-0.958555 -0.284908 -0.306586 0.951843 44.0098 35.1841)" fill="#EE0000"/>
<ellipse id="Ellipse 1334_8" cx="0.0444926" cy="0.0430418" rx="0.0444926" ry="0.0430418" transform="matrix(-0.958555 -0.284908 -0.306586 0.951843 43.3936 35.8218)" fill="#EE0000"/>
<ellipse id="Ellipse 1364_4" cx="0.0444926" cy="0.0430418" rx="0.0444926" ry="0.0430418" transform="matrix(-0.958555 -0.284908 -0.306586 0.951843 42.9268 36.0425)" fill="#EE0000"/>
<ellipse id="Ellipse 1368_3" cx="0.0444926" cy="0.0430418" rx="0.0444926" ry="0.0430418" transform="matrix(-0.958555 -0.284908 -0.306586 0.951843 42.2832 36.5801)" fill="#EE0000"/>
<ellipse id="Ellipse 1369_3" cx="0.027331" cy="0.0264398" rx="0.027331" ry="0.0264398" transform="matrix(-0.958555 -0.284908 -0.306586 0.951843 42.1533 36.8584)" fill="#EE0000"/>
<ellipse id="Ellipse 1370_3" cx="0.027331" cy="0.0264398" rx="0.027331" ry="0.0264398" transform="matrix(-0.958555 -0.284908 -0.306586 0.951843 42.2139 37.6558)" fill="#EE0000"/>
<ellipse id="Ellipse 1376_3" cx="0.027331" cy="0.0264398" rx="0.027331" ry="0.0264398" transform="matrix(-0.958555 -0.284908 -0.306586 0.951843 42.4219 37.0405)" fill="#EE0000"/>
<ellipse id="Ellipse 1377_3" cx="0.027331" cy="0.0264398" rx="0.027331" ry="0.0264398" transform="matrix(-0.958555 -0.284908 -0.306586 0.951843 42.6064 37.374)" fill="#EE0000"/>
<ellipse id="Ellipse 1378_3" cx="0.027331" cy="0.0264398" rx="0.027331" ry="0.0264398" transform="matrix(-0.958555 -0.284908 -0.306586 0.951843 41.1562 38.3501)" fill="#EE0000"/>
<ellipse id="Ellipse 1379_3" cx="0.027331" cy="0.0264398" rx="0.027331" ry="0.0264398" transform="matrix(-0.958555 -0.284908 -0.306586 0.951843 41.2461 38.0718)" fill="#EE0000"/>
<ellipse id="Ellipse 1371_3" cx="0.027331" cy="0.0264398" rx="0.027331" ry="0.0264398" transform="matrix(-0.958555 -0.284908 -0.306586 0.951843 41.9023 37.3433)" fill="#EE0000"/>
<ellipse id="Ellipse 1386_2" cx="0.027331" cy="0.0264398" rx="0.027331" ry="0.0264398" transform="matrix(-0.958555 -0.284908 -0.306586 0.951843 40.2441 39.627)" fill="#EE0000"/>
<ellipse id="Ellipse 1387_2" cx="0.027331" cy="0.0264398" rx="0.027331" ry="0.0264398" transform="matrix(-0.958555 -0.284908 -0.306586 0.951843 39.5605 40.2246)" fill="#EE0000"/>
<ellipse id="Ellipse 1372_3" cx="0.0159421" cy="0.0154223" rx="0.0159421" ry="0.0154223" transform="matrix(-0.958555 -0.284908 -0.306586 0.951843 42.708 36.6289)" fill="#EE0000"/>
<ellipse id="Ellipse 1373_3" cx="0.0298322" cy="0.0288595" rx="0.0298322" ry="0.0288595" transform="matrix(-0.958555 -0.284908 -0.306586 0.951843 42.624 36.5103)" fill="#EE0000"/>
<ellipse id="Ellipse 1374_3" cx="0.0298322" cy="0.0288595" rx="0.0298322" ry="0.0288595" transform="matrix(-0.958555 -0.284908 -0.306586 0.951843 42.7891 36.2251)" fill="#EE0000"/>
<ellipse id="Ellipse 1375_3" cx="0.0298322" cy="0.0288595" rx="0.0298322" ry="0.0288595" transform="matrix(-0.958555 -0.284908 -0.306586 0.951843 42.3877 36.4897)" fill="#EE0000"/>
<ellipse id="Ellipse 1365_4" cx="0.0316585" cy="0.0306262" rx="0.0316585" ry="0.0306262" transform="matrix(-0.958555 -0.284908 -0.306586 0.951843 42.9531 36.4146)" fill="#EE0000"/>
<ellipse id="Ellipse 1366_3" cx="0.0316585" cy="0.0306262" rx="0.0316585" ry="0.0306262" transform="matrix(-0.958555 -0.284908 -0.306586 0.951843 42.623 36.415)" fill="#EE0000"/>
<ellipse id="Ellipse 1351_7" cx="0.0444926" cy="0.0430418" rx="0.0444926" ry="0.0430418" transform="matrix(-0.958555 -0.284908 -0.306586 0.951843 43.6797 35.3467)" fill="#EE0000"/>
<ellipse id="Ellipse 1335_8" cx="0.0444926" cy="0.0430418" rx="0.0444926" ry="0.0430418" transform="matrix(-0.958555 -0.284908 -0.306586 0.951843 43.3926 35.001)" fill="#EE0000"/>
<ellipse id="Ellipse 1327_8" cx="0.0599578" cy="0.0580026" rx="0.0599578" ry="0.0580026" transform="matrix(-0.958555 -0.284908 -0.306586 0.951843 43.9932 34.8501)" fill="#EE0000"/>
<ellipse id="Ellipse 1328_8" cx="0.0899366" cy="0.0870039" rx="0.0899366" ry="0.0870039" transform="matrix(-0.958555 -0.284908 -0.306586 0.951843 43.7764 34.5439)" fill="#EE0000"/>
<ellipse id="Ellipse 1329_8" cx="0.0896801" cy="0.0872684" rx="0.0896801" ry="0.0872684" transform="matrix(-1.00626 0.00244862 0.00261947 0.993342 43.7354 34.9985)" fill="#EE0000"/>
<ellipse id="Ellipse 1336_4" cx="0.0896801" cy="0.0872684" rx="0.0896801" ry="0.0872684" transform="matrix(-1.00626 0.00244862 0.00261947 0.993342 43.376 35.2095)" fill="#EE0000"/>
<ellipse id="Ellipse 1367_3" cx="0.0896801" cy="0.0872684" rx="0.0896801" ry="0.0872684" transform="matrix(-1.00626 0.00244862 0.00261947 0.993342 43.0967 35.8818)" fill="#EE0000"/>
<ellipse id="Ellipse 1330_8" cx="0.0899366" cy="0.0870039" rx="0.0899366" ry="0.0870039" transform="matrix(-0.958555 -0.284908 -0.306586 0.951843 43.7891 34.3057)" fill="#EE0000"/>
<path id="Vector 1995_2" d="M45.0807 30.3076C45.2004 30.0435 45.4328 27.9815 45.3532 27.9083C44.8527 28.8598 44.3366 31.5243 44.3109 31.6042C44.2787 31.7042 43.6291 34.0069 43.5289 34.318C43.4286 34.6292 42.9578 35.1371 42.1647 35.9477C41.3717 36.7583 41.825 37.0025 41.1024 37.7124C40.5243 38.2803 38.3352 40.8642 37.3129 42.0852C37.9263 41.57 39.1702 40.5106 39.238 40.3945C39.3227 40.2493 40.0816 39.6233 40.3482 39.228C40.6149 38.8328 40.4811 39.012 40.5926 38.8627C40.704 38.7133 40.9269 38.4145 41.0169 38.3318C41.1069 38.249 41.5257 37.8139 41.6789 37.6526C41.8322 37.4913 41.8371 37.2008 42.0146 36.9251C42.192 36.6493 42.1428 36.8415 42.3781 36.5829C42.6133 36.3244 42.7003 36.4476 43.0104 36.1139C43.2585 35.847 43.2908 35.6492 43.276 35.5837C43.3364 35.4411 43.3627 35.0376 43.4889 34.9228C43.6465 34.7794 43.5701 34.9589 43.6251 34.8265C43.6802 34.6942 43.7478 34.5418 43.8947 34.0858C44.0028 33.9038 43.9582 34.0809 44.0463 33.9227C44.1344 33.7645 44.1232 33.6838 44.3109 33.2935C44.3971 33.218 44.3936 33.2289 44.3843 33.0655C44.375 32.9021 44.4403 32.8918 44.6262 32.5069C44.8121 32.122 44.6134 32.3544 44.6571 32.2187C44.7008 32.0829 44.7218 32.0178 44.7002 31.8924C44.6787 31.7671 44.8176 31.6051 45.0391 31.2248C45.2687 30.9865 45.1884 30.9728 45.2409 30.81C45.2161 30.6755 45.2266 30.8646 45.1466 30.6549C45.1939 30.5079 44.9309 30.6379 45.0807 30.3076Z" fill="#EE0000"/>
<ellipse id="Ellipse 1324_8" cx="0.0599578" cy="0.0580026" rx="0.0599578" ry="0.0580026" transform="matrix(-0.958555 -0.284908 -0.306586 0.951843 44.0205 34.3745)" fill="#EE0000"/>
<ellipse id="Ellipse 1325_8" cx="0.0899366" cy="0.0870039" rx="0.0899366" ry="0.0870039" transform="matrix(-0.958555 -0.284908 -0.306586 0.951843 43.9766 34.1191)" fill="#EE0000"/>
</g>
</g>
</g>
<defs>
<filter id="filter0_f_11_3500" x="0.0872788" y="3.31872" width="48.8782" height="45.4553" filterUnits="userSpaceOnUse" color-interpolation-filters="sRGB">
<feFlood flood-opacity="0" result="BackgroundImageFix"/>
<feBlend mode="normal" in="SourceGraphic" in2="BackgroundImageFix" result="shape"/>
<feGaussianBlur stdDeviation="1.21808" result="effect1_foregroundBlur_11_3500"/>
</filter>
<filter id="filter1_f_11_3500" x="1.95128" y="15.4708" width="43.9129" height="26.6634" filterUnits="userSpaceOnUse" color-interpolation-filters="sRGB">
<feFlood flood-opacity="0" result="BackgroundImageFix"/>
<feBlend mode="normal" in="SourceGraphic" in2="BackgroundImageFix" result="shape"/>
<feGaussianBlur stdDeviation="0.0243616" result="effect1_foregroundBlur_11_3500"/>
</filter>
</defs>
</svg>
